<?xml version="1.0" encoding="UTF-8" standalone="no"?>
<!DOCTYPE svg PUBLIC "-//W3C//DTD SVG 1.1//EN"
 "http://www.w3.org/Graphics/SVG/1.1/DTD/svg11.dtd">
<!-- Generated by graphviz version 2.42.4 (0)
 -->
<!-- Title: G Pages: 1 -->
<svg width="1381pt" height="422pt"
 viewBox="0.00 0.00 1381.40 422.40" xmlns="http://www.w3.org/2000/svg" xmlns:xlink="http://www.w3.org/1999/xlink">
<g id="graph0" class="graph" transform="scale(1 1) rotate(0) translate(25.2 397.2)">
<title>G</title>
<polygon fill="white" stroke="transparent" points="-25.2,25.2 -25.2,-397.2 1356.2,-397.2 1356.2,25.2 -25.2,25.2"/>
<text text-anchor="middle" x="665.5" y="-353.6" font-family="Arial" font-size="18.00">AI Decision Firewall POC — System Context</text>
<!-- sources -->
<g id="node1" class="node">
<title>sources</title>
<path fill="#eaf2ff" stroke="#49627f" d="M195,-92C195,-92 12,-92 12,-92 6,-92 0,-86 0,-80 0,-80 0,-47 0,-47 0,-41 6,-35 12,-35 12,-35 195,-35 195,-35 201,-35 207,-41 207,-47 207,-47 207,-80 207,-80 207,-86 201,-92 195,-92"/>
<text text-anchor="middle" x="103.5" y="-73.4" font-family="Arial" font-size="12.00">Synthetic Evidence Sources</text>
<text text-anchor="middle" x="103.5" y="-60.4" font-family="Arial" font-size="12.00">Identity • EDR • Network • CTI</text>
<text text-anchor="middle" x="103.5" y="-47.4" font-family="Arial" font-size="12.00">CMDB • Change • Travel • Tickets</text>
</g>
<!-- firewall -->
<g id="node2" class="node">
<title>firewall</title>
<path fill="#ddebff" stroke="#49627f" stroke-width="2.2" d="M606,-199C606,-199 416,-199 416,-199 410,-199 404,-193 404,-187 404,-187 404,-154 404,-154 404,-148 410,-142 416,-142 416,-142 606,-142 606,-142 612,-142 618,-148 618,-154 618,-154 618,-187 618,-187 618,-193 612,-199 606,-199"/>
<text text-anchor="middle" x="511" y="-180.4" font-family="Arial" font-size="12.00">AI Decision Firewall</text>
<text text-anchor="middle" x="511" y="-167.4" font-family="Arial" font-size="12.00">Evidence assessment • Risk model</text>
<text text-anchor="middle" x="511" y="-154.4" font-family="Arial" font-size="12.00">Policy • Verifier • Authorization</text>
</g>
<!-- sources&#45;&gt;firewall -->
<g id="edge1" class="edge">
<title>sources&#45;&gt;firewall</title>
<path fill="none" stroke="#5f6f82" d="M207.09,-90.57C264.68,-105.77 336.68,-124.77 396.03,-140.43"/>
<polygon fill="#5f6f82" stroke="#5f6f82" points="395.5,-143.18 403.95,-142.52 396.93,-137.77 395.5,-143.18"/>
<text text-anchor="middle" x="305.5" y="-136.5" font-family="Arial" font-size="10.00">structured events + provenance</text>
</g>
<!-- evaluator -->
<g id="node6" class="node">
<title>evaluator</title>
<path fill="#f9eef0" stroke="#49627f" d="M962,-57C962,-57 839,-57 839,-57 833,-57 827,-51 827,-45 827,-45 827,-12 827,-12 827,-6 833,0 839,0 839,0 962,0 962,0 968,0 974,-6 974,-12 974,-12 974,-45 974,-45 974,-51 968,-57 962,-57"/>
<text text-anchor="middle" x="900.5" y="-38.4" font-family="Arial" font-size="12.00">Independent Evaluator</text>
<text text-anchor="middle" x="900.5" y="-25.4" font-family="Arial" font-size="12.00">Ground truth • Metrics</text>
<text text-anchor="middle" x="900.5" y="-12.4" font-family="Arial" font-size="12.00">Scenario analysis</text>
</g>
<!-- sources&#45;&gt;evaluator -->
<g id="edge8" class="edge">
<title>sources&#45;&gt;evaluator</title>
<path fill="none" stroke="#5f6f82" stroke-dasharray="5,2" d="M207.21,-58.98C367.36,-51.93 673.26,-38.46 818.75,-32.05"/>
<polygon fill="#5f6f82" stroke="#5f6f82" points="818.96,-34.85 826.83,-31.7 818.72,-29.25 818.96,-34.85"/>
<text text-anchor="middle" x="511" y="-53.5" font-family="Arial" font-size="10.00">labels stored separately</text>
</g>
<!-- human -->
<g id="node3" class="node">
<title>human</title>
<path fill="#fff5e1" stroke="#49627f" d="M971.5,-344C971.5,-344 829.5,-344 829.5,-344 823.5,-344 817.5,-338 817.5,-332 817.5,-332 817.5,-299 817.5,-299 817.5,-293 823.5,-287 829.5,-287 829.5,-287 971.5,-287 971.5,-287 977.5,-287 983.5,-293 983.5,-299 983.5,-299 983.5,-332 983.5,-332 983.5,-338 977.5,-344 971.5,-344"/>
<text text-anchor="middle" x="900.5" y="-325.4" font-family="Arial" font-size="12.00">Human Decision Authority</text>
<text text-anchor="middle" x="900.5" y="-312.4" font-family="Arial" font-size="12.00">SOC lead • Identity owner</text>
<text text-anchor="middle" x="900.5" y="-299.4" font-family="Arial" font-size="12.00">Incident commander</text>
</g>
<!-- firewall&#45;&gt;human -->
<g id="edge2" class="edge">
<title>firewall&#45;&gt;human</title>
<path fill="none" stroke="#5f6f82" d="M557.88,-199.06C583.42,-214.07 616.19,-231.92 647,-244.5 699.41,-265.91 760.47,-283.27 809.42,-295.46"/>
<polygon fill="#5f6f82" stroke="#5f6f82" points="809.04,-298.25 817.47,-297.45 810.38,-292.82 809.04,-298.25"/>
<text text-anchor="middle" x="710" y="-287.5" font-family="Arial" font-size="10.00">escalation / approval request</text>
</g>
<!-- simulator -->
<g id="node4" class="node">
<title>simulator</title>
<path fill="#e7f7ed" stroke="#49627f" d="M987,-246C987,-246 814,-246 814,-246 808,-246 802,-240 802,-234 802,-234 802,-201 802,-201 802,-195 808,-189 814,-189 814,-189 987,-189 987,-189 993,-189 999,-195 999,-201 999,-201 999,-234 999,-234 999,-240 993,-246 987,-246"/>
<text text-anchor="middle" x="900.5" y="-227.4" font-family="Arial" font-size="12.00">In&#45;Memory Identity Simulator</text>
<text text-anchor="middle" x="900.5" y="-214.4" font-family="Arial" font-size="12.00">Revoke sessions • Step&#45;up auth</text>
<text text-anchor="middle" x="900.5" y="-201.4" font-family="Arial" font-size="12.00">Increase monitoring</text>
</g>
<!-- firewall&#45;&gt;simulator -->
<g id="edge3" class="edge">
<title>firewall&#45;&gt;simulator</title>
<path fill="none" stroke="#5f6f82" d="M583.8,-199.06C603.93,-205.79 626.04,-212.01 647,-215.5 694.73,-223.44 748.24,-224.9 793.67,-224"/>
<polygon fill="#5f6f82" stroke="#5f6f82" points="793.83,-226.8 801.76,-223.82 793.7,-221.2 793.83,-226.8"/>
<text text-anchor="middle" x="710" y="-226.5" font-family="Arial" font-size="10.00">signed, scoped action token</text>
</g>
<!-- audit -->
<g id="node5" class="node">
<title>audit</title>
<path fill="#f2eafe" stroke="#49627f" d="M1319,-199C1319,-199 1154,-199 1154,-199 1148,-199 1142,-193 1142,-187 1142,-187 1142,-154 1142,-154 1142,-148 1148,-142 1154,-142 1154,-142 1319,-142 1319,-142 1325,-142 1331,-148 1331,-154 1331,-154 1331,-187 1331,-187 1331,-193 1325,-199 1319,-199"/>
<text text-anchor="middle" x="1236.5" y="-180.4" font-family="Arial" font-size="12.00">Tamper&#45;Evident Audit Chain</text>
<text text-anchor="middle" x="1236.5" y="-167.4" font-family="Arial" font-size="12.00">Decisions • Evidence • Tokens</text>
<text text-anchor="middle" x="1236.5" y="-154.4" font-family="Arial" font-size="12.00">Actions • Verification</text>
</g>
<!-- firewall&#45;&gt;audit -->
<g id="edge5" class="edge">
<title>firewall&#45;&gt;audit</title>
<path fill="none" stroke="#5f6f82" d="M618.02,-164.61C672.91,-161.84 741.03,-158.87 802,-157.5 889.53,-155.54 911.48,-155.1 999,-157.5 1043.12,-158.71 1091.83,-161.19 1133.51,-163.67"/>
<polygon fill="#5f6f82" stroke="#5f6f82" points="1133.6,-166.48 1141.75,-164.16 1133.93,-160.89 1133.6,-166.48"/>
<text text-anchor="middle" x="900.5" y="-160.5" font-family="Arial" font-size="10.00">append&#45;only records</text>
</g>
<!-- firewall&#45;&gt;evaluator -->
<g id="edge7" class="edge">
<title>firewall&#45;&gt;evaluator</title>
<path fill="none" stroke="#5f6f82" d="M559.51,-141.86C584.84,-127.44 616.91,-110.53 647,-98.5 702.93,-76.15 768.56,-58.19 818.89,-46.06"/>
<polygon fill="#5f6f82" stroke="#5f6f82" points="819.7,-48.75 826.83,-44.16 818.4,-43.3 819.7,-48.75"/>
<text text-anchor="middle" x="710" y="-101.5" font-family="Arial" font-size="10.00">decision records</text>
</g>
<!-- simulator&#45;&gt;firewall -->
<g id="edge4" class="edge">
<title>simulator&#45;&gt;firewall</title>
<path fill="none" stroke="#5f6f82" d="M801.84,-205.66C748.47,-199.18 682.07,-191.13 626.29,-184.36"/>
<polygon fill="#5f6f82" stroke="#5f6f82" points="626.42,-181.56 618.14,-183.37 625.75,-187.12 626.42,-181.56"/>
<text text-anchor="middle" x="710" y="-203.5" font-family="Arial" font-size="10.00">action outcome + state</text>
</g>
<!-- simulator&#45;&gt;audit -->
<g id="edge6" class="edge">
<title>simulator&#45;&gt;audit</title>
<path fill="none" stroke="#5f6f82" d="M999,-203.78C1041.33,-197.82 1090.91,-190.85 1133.71,-184.82"/>
<polygon fill="#5f6f82" stroke="#5f6f82" points="1134.36,-187.56 1141.9,-183.67 1133.58,-182.01 1134.36,-187.56"/>
<text text-anchor="middle" x="1070.5" y="-202.5" font-family="Arial" font-size="10.00">execution evidence</text>
</g>
</g>
</svg>
