<?xml version="1.0" encoding="UTF-8" standalone="no"?>
<!DOCTYPE svg PUBLIC "-//W3C//DTD SVG 1.1//EN"
 "http://www.w3.org/Graphics/SVG/1.1/DTD/svg11.dtd">
<!-- Generated by graphviz version 2.42.4 (0)
 -->
<!-- Title: G Pages: 1 -->
<svg width="975pt" height="402pt"
 viewBox="0.00 0.00 975.18 401.68" xmlns="http://www.w3.org/2000/svg" xmlns:xlink="http://www.w3.org/1999/xlink">
<g id="graph0" class="graph" transform="scale(1 1) rotate(0) translate(15.84 385.84)">
<title>G</title>
<polygon fill="white" stroke="transparent" points="-15.84,15.84 -15.84,-385.84 959.34,-385.84 959.34,15.84 -15.84,15.84"/>
<text text-anchor="middle" x="471.75" y="-351.6" font-family="Arial" font-size="18.00">AI Decision Firewall POC — Logical Architecture</text>
<!-- evidence -->
<g id="node1" class="node">
<title>evidence</title>
<polygon fill="#dde7f0" stroke="transparent" points="1.5,-305 1.5,-335 194.5,-335 194.5,-305 1.5,-305"/>
<polygon fill="none" stroke="#7f95aa" points="1.5,-305 1.5,-335 194.5,-335 194.5,-305 1.5,-305"/>
<text text-anchor="start" x="51.5" y="-318.2" font-family="Arial" font-weight="bold" font-size="11.00">1. Evidence Plane</text>
<polygon fill="#f7f9fc" stroke="transparent" points="1.5,-275 1.5,-305 194.5,-305 194.5,-275 1.5,-275"/>
<polygon fill="none" stroke="#7f95aa" points="1.5,-275 1.5,-305 194.5,-305 194.5,-275 1.5,-275"/>
<text text-anchor="start" x="44.5" y="-287.2" font-family="Arial" font-size="11.00">Schema normalization</text>
<polygon fill="#f7f9fc" stroke="transparent" points="1.5,-245 1.5,-275 194.5,-275 194.5,-245 1.5,-245"/>
<polygon fill="none" stroke="#7f95aa" points="1.5,-245 1.5,-275 194.5,-275 194.5,-245 1.5,-245"/>
<text text-anchor="start" x="10.5" y="-257.2" font-family="Arial" font-size="11.00">Provenance, integrity, and freshness</text>
<polygon fill="#f7f9fc" stroke="transparent" points="1.5,-215 1.5,-245 194.5,-245 194.5,-215 1.5,-215"/>
<polygon fill="none" stroke="#7f95aa" points="1.5,-215 1.5,-245 194.5,-245 194.5,-215 1.5,-215"/>
<text text-anchor="start" x="28" y="-227.2" font-family="Arial" font-size="11.00">Adversarial&#45;content detection</text>
<polygon fill="#f7f9fc" stroke="transparent" points="1.5,-185 1.5,-215 194.5,-215 194.5,-185 1.5,-185"/>
<polygon fill="none" stroke="#7f95aa" points="1.5,-185 1.5,-215 194.5,-215 194.5,-185 1.5,-185"/>
<text text-anchor="start" x="12" y="-197.2" font-family="Arial" font-size="11.00">Case assembly and evidence graph</text>
<polygon fill="none" stroke="#7f95aa" points="0,-184 0,-336 195,-336 195,-184 0,-184"/>
</g>
<!-- decision -->
<g id="node2" class="node">
<title>decision</title>
<polygon fill="#dcebfa" stroke="transparent" points="314.5,-311 314.5,-341 587.5,-341 587.5,-311 314.5,-311"/>
<polygon fill="none" stroke="#5e8cc8" points="314.5,-311 314.5,-341 587.5,-341 587.5,-311 314.5,-311"/>
<text text-anchor="start" x="405.5" y="-324.2" font-family="Arial" font-weight="bold" font-size="11.00">2. Decision Plane</text>
<polygon fill="#f7f9fc" stroke="transparent" points="314.5,-281 314.5,-311 587.5,-311 587.5,-281 314.5,-281"/>
<polygon fill="none" stroke="#5e8cc8" points="314.5,-281 314.5,-311 587.5,-311 587.5,-281 314.5,-281"/>
<text text-anchor="start" x="377" y="-293.2" font-family="Arial" font-size="11.00">Allow&#45;listed structured features</text>
<polygon fill="#e8f1ff" stroke="transparent" points="314.5,-239 314.5,-281 466.5,-281 466.5,-239 314.5,-239"/>
<polygon fill="none" stroke="#5e8cc8" points="314.5,-239 314.5,-281 466.5,-281 466.5,-239 314.5,-239"/>
<text text-anchor="start" x="334.5" y="-262.2" font-family="Arial" font-size="11.00">Replaceable risk model</text>
<text text-anchor="start" x="323.5" y="-252.8" font-family="Arial" font-size="9.00">advisory only; no action authority</text>
<polygon fill="#f7f9fc" stroke="transparent" points="466.5,-239 466.5,-281 587.5,-281 587.5,-239 466.5,-239"/>
<polygon fill="none" stroke="#5e8cc8" points="466.5,-239 466.5,-281 587.5,-281 587.5,-239 466.5,-239"/>
<text text-anchor="start" x="477" y="-263.2" font-family="Arial" font-size="11.00">Evidence&#45;quality and</text>
<text text-anchor="start" x="475.5" y="-251.2" font-family="Arial" font-size="11.00">contradiction analysis</text>
<polygon fill="#f7f9fc" stroke="transparent" points="314.5,-209 314.5,-239 587.5,-239 587.5,-209 314.5,-209"/>
<polygon fill="none" stroke="#5e8cc8" points="314.5,-209 314.5,-239 587.5,-239 587.5,-209 314.5,-209"/>
<text text-anchor="start" x="387" y="-221.2" font-family="Arial" font-size="11.00">Deterministic policy engine</text>
<polygon fill="#fff4dd" stroke="transparent" points="314.5,-179 314.5,-209 587.5,-209 587.5,-179 314.5,-179"/>
<polygon fill="none" stroke="#5e8cc8" points="314.5,-179 314.5,-209 587.5,-209 587.5,-179 314.5,-179"/>
<text text-anchor="start" x="376" y="-191.2" font-family="Arial" font-size="11.00">Independent non&#45;model verifier</text>
<polygon fill="none" stroke="#5e8cc8" points="313,-178 313,-342 588,-342 588,-178 313,-178"/>
</g>
<!-- evidence&#45;&gt;decision -->
<g id="edge1" class="edge">
<title>evidence&#45;&gt;decision</title>
<path fill="none" stroke="#617286" stroke-width="1.15" d="M195.36,-260C195.36,-260 306,-260 306,-260"/>
<polygon fill="#617286" stroke="#617286" stroke-width="1.15" points="306,-262.38 312.8,-260 306,-257.62 306,-262.38"/>
</g>
<!-- assurance -->
<g id="node4" class="node">
<title>assurance</title>
<polygon fill="#e9e1f3" stroke="transparent" points="165.5,-91 165.5,-121 750.5,-121 750.5,-91 165.5,-91"/>
<polygon fill="none" stroke="#8c78ad" points="165.5,-91 165.5,-121 750.5,-121 750.5,-91 165.5,-91"/>
<text text-anchor="start" x="407.5" y="-104.2" font-family="Arial" font-weight="bold" font-size="11.00">4. Assurance Plane</text>
<polygon fill="#f7f9fc" stroke="transparent" points="165.5,-61 165.5,-91 343.5,-91 343.5,-61 165.5,-61"/>
<polygon fill="none" stroke="#8c78ad" points="165.5,-61 165.5,-91 343.5,-91 343.5,-61 165.5,-61"/>
<text text-anchor="start" x="174.5" y="-73.2" font-family="Arial" font-size="11.00">Evidence and provenance events</text>
<polygon fill="#f7f9fc" stroke="transparent" points="343.5,-61 343.5,-91 558.5,-91 558.5,-61 343.5,-61"/>
<polygon fill="none" stroke="#8c78ad" points="343.5,-61 343.5,-91 558.5,-91 558.5,-61 343.5,-61"/>
<text text-anchor="start" x="352.5" y="-73.2" font-family="Arial" font-size="11.00">Score, decision, and authorization events</text>
<polygon fill="#f7f9fc" stroke="transparent" points="558.5,-61 558.5,-91 750.5,-91 750.5,-61 558.5,-61"/>
<polygon fill="none" stroke="#8c78ad" points="558.5,-61 558.5,-91 750.5,-91 750.5,-61 558.5,-61"/>
<text text-anchor="start" x="580.5" y="-73.2" font-family="Arial" font-size="11.00">Execution and outcome events</text>
<polygon fill="#f3eff8" stroke="transparent" points="165.5,-31 165.5,-61 750.5,-61 750.5,-31 165.5,-31"/>
<polygon fill="none" stroke="#8c78ad" points="165.5,-31 165.5,-61 750.5,-61 750.5,-31 165.5,-31"/>
<text text-anchor="start" x="349.5" y="-43.2" font-family="Arial" font-size="11.00">Hash&#45;chained audit log with tamper detection</text>
<polygon fill="#f7f9fc" stroke="transparent" points="165.5,-1 165.5,-31 558.5,-31 558.5,-1 165.5,-1"/>
<polygon fill="none" stroke="#8c78ad" points="165.5,-1 165.5,-31 558.5,-31 558.5,-1 165.5,-1"/>
<text text-anchor="start" x="233.5" y="-13.2" font-family="Arial" font-size="11.00">Evaluation, calibration, safety, and operational metrics</text>
<polygon fill="#f7f9fc" stroke="transparent" points="558.5,-1 558.5,-31 750.5,-31 750.5,-1 558.5,-1"/>
<polygon fill="none" stroke="#8c78ad" points="558.5,-1 558.5,-31 750.5,-31 750.5,-1 558.5,-1"/>
<text text-anchor="start" x="567.5" y="-13.2" font-family="Arial" font-size="11.00">HTML / CSV / engineering evidence</text>
<polygon fill="none" stroke="#8c78ad" points="164,0 164,-122 751,-122 751,0 164,0"/>
</g>
<!-- evidence&#45;&gt;assurance -->
<g id="edge3" class="edge">
<title>evidence:s&#45;&gt;assurance:n</title>
<path fill="none" stroke="#617286" stroke-width="1.15" stroke-dasharray="5,2" d="M179.5,-184C179.5,-184 179.5,-97.8 179.5,-97.8"/>
<polygon fill="#617286" stroke="#617286" stroke-width="1.15" points="181.88,-97.8 179.5,-91 177.12,-97.8 181.88,-97.8"/>
<text text-anchor="middle" x="195.5" y="-147.4" font-family="Arial" font-size="9.50">evidence</text>
</g>
<!-- action -->
<g id="node3" class="node">
<title>action</title>
<polygon fill="#dff0e4" stroke="transparent" points="710.5,-305 710.5,-335 942.5,-335 942.5,-305 710.5,-305"/>
<polygon fill="none" stroke="#679b78" points="710.5,-305 710.5,-335 942.5,-335 942.5,-305 710.5,-305"/>
<text text-anchor="start" x="749.5" y="-318.2" font-family="Arial" font-weight="bold" font-size="11.00">3. Authority and Action Plane</text>
<polygon fill="#e9f8ee" stroke="transparent" points="710.5,-275 710.5,-305 942.5,-305 942.5,-275 710.5,-275"/>
<polygon fill="none" stroke="#679b78" points="710.5,-275 710.5,-305 942.5,-305 942.5,-275 710.5,-275"/>
<text text-anchor="start" x="719.5" y="-287.2" font-family="Arial" font-size="11.00">Signed, case&#45;bound authorization token gate</text>
<polygon fill="#f7f9fc" stroke="transparent" points="710.5,-245 710.5,-275 942.5,-275 942.5,-245 710.5,-245"/>
<polygon fill="none" stroke="#679b78" points="710.5,-245 710.5,-275 942.5,-275 942.5,-245 710.5,-245"/>
<text text-anchor="start" x="748.5" y="-257.2" font-family="Arial" font-size="11.00">Credential&#45;isolated action broker</text>
<polygon fill="#f7f9fc" stroke="transparent" points="710.5,-215 710.5,-245 942.5,-245 942.5,-215 710.5,-215"/>
<polygon fill="none" stroke="#679b78" points="710.5,-215 710.5,-245 942.5,-245 942.5,-215 710.5,-215"/>
<text text-anchor="start" x="758.5" y="-227.2" font-family="Arial" font-size="11.00">In&#45;memory identity simulator</text>
<polygon fill="#f7f9fc" stroke="transparent" points="710.5,-185 710.5,-215 942.5,-215 942.5,-185 710.5,-185"/>
<polygon fill="none" stroke="#679b78" points="710.5,-185 710.5,-215 942.5,-215 942.5,-185 710.5,-185"/>
<text text-anchor="start" x="759" y="-197.2" font-family="Arial" font-size="11.00">Post&#45;action state verification</text>
<polygon fill="none" stroke="#679b78" points="709.5,-184 709.5,-336 943.5,-336 943.5,-184 709.5,-184"/>
</g>
<!-- decision&#45;&gt;action -->
<g id="edge2" class="edge">
<title>decision&#45;&gt;action</title>
<path fill="none" stroke="#617286" stroke-width="1.15" d="M588.11,-260C588.11,-260 702.4,-260 702.4,-260"/>
<polygon fill="#617286" stroke="#617286" stroke-width="1.15" points="702.4,-262.38 709.2,-260 702.4,-257.62 702.4,-262.38"/>
</g>
<!-- decision&#45;&gt;assurance -->
<g id="edge4" class="edge">
<title>decision:s&#45;&gt;assurance:n</title>
<path fill="none" stroke="#617286" stroke-width="1.15" stroke-dasharray="5,2" d="M450.5,-178C450.5,-178 450.5,-97.8 450.5,-97.8"/>
<polygon fill="#617286" stroke="#617286" stroke-width="1.15" points="452.88,-97.8 450.5,-91 448.12,-97.8 452.88,-97.8"/>
<text text-anchor="middle" x="468" y="-147.4" font-family="Arial" font-size="9.50">decision</text>
</g>
<!-- action&#45;&gt;assurance -->
<g id="edge5" class="edge">
<title>action:s&#45;&gt;assurance:n</title>
<path fill="none" stroke="#617286" stroke-width="1.15" stroke-dasharray="5,2" d="M730.25,-184C730.25,-184 730.25,-97.8 730.25,-97.8"/>
<polygon fill="#617286" stroke="#617286" stroke-width="1.15" points="732.63,-97.8 730.25,-91 727.87,-97.8 732.63,-97.8"/>
<text text-anchor="middle" x="759" y="-147.4" font-family="Arial" font-size="9.50">outcome</text>
</g>
</g>
</svg>
