<?xml version="1.0" encoding="UTF-8" standalone="no"?>
<!DOCTYPE svg PUBLIC "-//W3C//DTD SVG 1.1//EN"
 "http://www.w3.org/Graphics/SVG/1.1/DTD/svg11.dtd">
<!-- Generated by graphviz version 15.1.1 (20260805.0921)
 -->
<!-- Title: Phase3OperationalMVP Pages: 1 -->
<svg width="1085pt" height="1307pt"
 viewBox="0.00 0.00 1085.00 1307.00" xmlns="http://www.w3.org/2000/svg" xmlns:xlink="http://www.w3.org/1999/xlink">
<g id="graph0" class="graph" transform="scale(1 1) rotate(0) translate(17.28 1290.04)">
<title>Phase3OperationalMVP</title>
<polygon fill="white" stroke="none" points="-17.28,17.28 -17.28,-1290.04 1068.02,-1290.04 1068.02,17.28 -17.28,17.28"/>
<text xml:space="preserve" text-anchor="middle" x="525.37" y="-1252.61" font-family="Arial" font-size="17.00">AI Decision Firewall &#45; Phase 3 Operational MVP Architecture</text>
<text xml:space="preserve" text-anchor="middle" x="525.37" y="-1233.11" font-family="Arial" font-size="17.00">Phase 2.5 @ 854b15c: published on main; exact&#45;commit CI green</text>
<text xml:space="preserve" text-anchor="middle" x="525.37" y="-1213.61" font-family="Arial" font-size="17.00">Phase 3: local demo/corpus candidate; exact commit and CI pending</text>
<text xml:space="preserve" text-anchor="middle" x="525.37" y="-1194.11" font-family="Arial" font-size="17.00">P2&#45;CE&#45;005: CE&#45;0 NOT_EVALUATED; separate from and unrelated to Phase 3</text>
<g id="clust2" class="cluster">
<title>cluster_execution</title>
<path fill="#f6fbf8" stroke="#679b78" d="M429.49,-144.75C429.49,-144.75 832.49,-144.75 832.49,-144.75 838.49,-144.75 844.49,-150.75 844.49,-156.75 844.49,-156.75 844.49,-630.55 844.49,-630.55 844.49,-636.55 838.49,-642.55 832.49,-642.55 832.49,-642.55 429.49,-642.55 429.49,-642.55 423.49,-642.55 417.49,-636.55 417.49,-630.55 417.49,-630.55 417.49,-156.75 417.49,-156.75 417.49,-150.75 423.49,-144.75 429.49,-144.75"/>
<text xml:space="preserve" text-anchor="middle" x="630.99" y="-628.58" font-family="Arial" font-size="10.50" fill="#356a47">APPLICATION EXECUTION BOUNDARY</text>
<text xml:space="preserve" text-anchor="middle" x="630.99" y="-616.58" font-family="Arial" font-size="10.50" fill="#356a47">synthetic_simulation only &#45; no live connectors, credentials, or operational targets</text>
<text xml:space="preserve" text-anchor="middle" x="630.99" y="-604.58" font-family="Arial" font-size="10.50" fill="#356a47">Private mutation capability is application&#45;level control, not OS/process/security isolation</text>
</g>
<!-- untrusted -->
<g id="node1" class="node">
<title>untrusted</title>
<path fill="#fdebec" stroke="#b85450" d="M356.97,-1186.76C356.97,-1186.76 12,-1186.76 12,-1186.76 6,-1186.76 0,-1180.76 0,-1174.76 0,-1174.76 0,-1137.8 0,-1137.8 0,-1131.8 6,-1125.8 12,-1125.8 12,-1125.8 356.97,-1125.8 356.97,-1125.8 362.97,-1125.8 368.97,-1131.8 368.97,-1137.8 368.97,-1137.8 368.97,-1174.76 368.97,-1174.76 368.97,-1180.76 362.97,-1186.76 356.97,-1186.76"/>
<text xml:space="preserve" text-anchor="middle" x="184.49" y="-1170.78" font-family="Arial" font-size="10.00" fill="#8b3a3a">UNTRUSTED REASONING PLANE</text>
<text xml:space="preserve" text-anchor="middle" x="184.49" y="-1158.78" font-family="Arial" font-size="10.00" fill="#8b3a3a">External AI / reasoning &#45;&gt; raw decision request</text>
<text xml:space="preserve" text-anchor="middle" x="184.49" y="-1146.78" font-family="Arial" font-size="10.00" fill="#8b3a3a">Recommendation/confidence + claimed agent/action/target/parameters/evidence</text>
<text xml:space="preserve" text-anchor="middle" x="184.49" y="-1134.78" font-family="Arial" font-size="10.00" fill="#8b3a3a">Never creates identity or authority; no credential, token, broker, or target access</text>
</g>
<!-- intake -->
<g id="node3" class="node">
<title>intake</title>
<path fill="white" stroke="none" d="M654.11,-1086.05C654.11,-1086.05 90.86,-1086.05 90.86,-1086.05 84.86,-1086.05 78.86,-1080.05 78.86,-1074.05 78.86,-1074.05 78.86,-994.05 78.86,-994.05 78.86,-988.05 84.86,-982.05 90.86,-982.05 90.86,-982.05 654.11,-982.05 654.11,-982.05 660.11,-982.05 666.11,-988.05 666.11,-994.05 666.11,-994.05 666.11,-1074.05 666.11,-1074.05 666.11,-1080.05 660.11,-1086.05 654.11,-1086.05"/>
<polygon fill="none" stroke="#8064a2" points="78.86,-982.05 78.86,-1086.05 666.11,-1086.05 666.11,-982.05 78.86,-982.05"/>
<polygon fill="#e8dff1" stroke="none" points="79.86,-1057.05 79.86,-1085.05 665.11,-1085.05 665.11,-1057.05 79.86,-1057.05"/>
<polygon fill="none" stroke="#8064a2" points="79.86,-1057.05 79.86,-1085.05 665.11,-1085.05 665.11,-1057.05 79.86,-1057.05"/>
<text xml:space="preserve" text-anchor="start" x="254.36" y="-1068.55" font-family="Arial" font-weight="bold" font-size="10.00">VALIDATION + TRUST&#45;RESOLUTION BOUNDARY</text>
<polygon fill="#f0eaf7" stroke="none" points="79.86,-1011.05 79.86,-1057.05 378.11,-1057.05 378.11,-1011.05 79.86,-1011.05"/>
<polygon fill="none" stroke="#8064a2" points="79.86,-1011.05 79.86,-1057.05 378.11,-1057.05 378.11,-1011.05 79.86,-1011.05"/>
<text xml:space="preserve" text-anchor="start" x="182.49" y="-1040.55" font-family="Arial" font-weight="bold" font-size="10.00">Strict request intake</text>
<text xml:space="preserve" text-anchor="start" x="115.74" y="-1030.55" font-family="Arial" font-size="10.00">Closed JSON schema • duplicate/nonfinite rejection</text>
<text xml:space="preserve" text-anchor="start" x="115.36" y="-1020.55" font-family="Arial" font-size="10.00">Size/depth/time bounds • exact action&#45;target binding</text>
<polygon fill="#f0eaf7" stroke="none" points="378.11,-1011.05 378.11,-1057.05 665.11,-1057.05 665.11,-1011.05 378.11,-1011.05"/>
<polygon fill="none" stroke="#8064a2" points="378.11,-1011.05 378.11,-1057.05 665.11,-1057.05 665.11,-1011.05 378.11,-1011.05"/>
<text xml:space="preserve" text-anchor="start" x="460.86" y="-1040.55" font-family="Arial" font-weight="bold" font-size="10.00">Trusted context resolution</text>
<text xml:space="preserve" text-anchor="start" x="413.61" y="-1030.55" font-family="Arial" font-size="10.00">Principal/authority • target/criticality • source trust</text>
<text xml:space="preserve" text-anchor="start" x="417.36" y="-1020.55" font-family="Arial" font-size="10.00">Policy safety invariants + version/digest binding</text>
<polygon fill="#fdebec" stroke="none" points="79.86,-983.05 79.86,-1011.05 665.11,-1011.05 665.11,-983.05 79.86,-983.05"/>
<polygon fill="none" stroke="#8064a2" points="79.86,-983.05 79.86,-1011.05 665.11,-1011.05 665.11,-983.05 79.86,-983.05"/>
<text xml:space="preserve" text-anchor="start" x="87.86" y="-994.55" font-family="Arial" font-weight="bold" font-size="10.00" fill="#8b3a3a">FAIL CLOSED:</text>
<text xml:space="preserve" text-anchor="start" x="157.61" y="-994.55" font-family="Arial" font-size="10.00" fill="#8b3a3a"> malformed, unauthenticated, unresolved, or untrusted input &#45;&gt; DENY record; no authorization, broker call, or effect</text>
</g>
<!-- untrusted&#45;&gt;intake -->
<g id="edge1" class="edge">
<title>untrusted&#45;&gt;intake</title>
<path fill="none" stroke="#617286" stroke-width="1.08" d="M230.96,-1125.56C247.61,-1114.91 266.97,-1102.53 285.93,-1090.41"/>
<polygon fill="#617286" stroke="#617286" stroke-width="1.08" points="286.93,-1092.67 291.51,-1086.84 284.29,-1088.54 286.93,-1092.67"/>
<text xml:space="preserve" text-anchor="middle" x="309.23" y="-1103.01" font-family="Arial" font-size="8.20" fill="#40546a">untrusted request bytes</text>
</g>
<!-- trusted -->
<g id="node2" class="node">
<title>trusted</title>
<path fill="#eaf2ff" stroke="#4f81bd" d="M717.22,-1186.76C717.22,-1186.76 403.75,-1186.76 403.75,-1186.76 397.75,-1186.76 391.75,-1180.76 391.75,-1174.76 391.75,-1174.76 391.75,-1137.8 391.75,-1137.8 391.75,-1131.8 397.75,-1125.8 403.75,-1125.8 403.75,-1125.8 717.22,-1125.8 717.22,-1125.8 723.22,-1125.8 729.22,-1131.8 729.22,-1137.8 729.22,-1137.8 729.22,-1174.76 729.22,-1174.76 729.22,-1180.76 723.22,-1186.76 717.22,-1186.76"/>
<text xml:space="preserve" text-anchor="middle" x="560.49" y="-1170.78" font-family="Arial" font-size="10.00" fill="#2c5a8a">TRUSTED RUNTIME CONTEXT</text>
<text xml:space="preserve" text-anchor="middle" x="560.49" y="-1158.78" font-family="Arial" font-size="10.00" fill="#2c5a8a">Authenticated principal/roles/authority + target inventory/criticality</text>
<text xml:space="preserve" text-anchor="middle" x="560.49" y="-1146.78" font-family="Arial" font-size="10.00" fill="#2c5a8a">Evidence&#45;source keys/attestation + deterministic policy ID/version/digest</text>
<text xml:space="preserve" text-anchor="middle" x="560.49" y="-1134.78" font-family="Arial" font-size="10.00" fill="#2c5a8a">Resolved independently; request assertions cannot create trust</text>
</g>
<!-- trusted&#45;&gt;intake -->
<g id="edge2" class="edge">
<title>trusted&#45;&gt;intake</title>
<path fill="none" stroke="#617286" stroke-width="1.08" d="M514.01,-1125.56C497.36,-1114.91 478,-1102.53 459.04,-1090.41"/>
<polygon fill="#617286" stroke="#617286" stroke-width="1.08" points="460.68,-1088.54 453.46,-1086.84 458.04,-1092.67 460.68,-1088.54"/>
<text xml:space="preserve" text-anchor="middle" x="545.1" y="-1103.01" font-family="Arial" font-size="8.20" fill="#40546a">trusted principal + policy context</text>
</g>
<!-- firewall -->
<g id="node4" class="node">
<title>firewall</title>
<path fill="white" stroke="none" d="M621.49,-942.3C621.49,-942.3 123.48,-942.3 123.48,-942.3 117.48,-942.3 111.49,-936.3 111.49,-930.3 111.49,-930.3 111.49,-824.3 111.49,-824.3 111.49,-818.3 117.49,-812.3 123.49,-812.3 123.49,-812.3 621.49,-812.3 621.49,-812.3 627.49,-812.3 633.49,-818.3 633.49,-824.3 633.49,-824.3 633.49,-930.3 633.49,-930.3 633.49,-936.3 627.49,-942.3 621.49,-942.3"/>
<polygon fill="none" stroke="#5e8cc8" points="111.49,-812.3 111.49,-942.3 633.49,-942.3 633.49,-812.3 111.49,-812.3"/>
<polygon fill="#dcebfa" stroke="none" points="112.49,-905.3 112.49,-941.3 632.49,-941.3 632.49,-905.3 112.49,-905.3"/>
<polygon fill="none" stroke="#5e8cc8" points="112.49,-905.3 112.49,-941.3 632.49,-941.3 632.49,-905.3 112.49,-905.3"/>
<text xml:space="preserve" text-anchor="start" x="279.11" y="-924.8" font-family="Arial" font-weight="bold" font-size="10.00">DETERMINISTIC DECISION FIREWALL</text>
<text xml:space="preserve" text-anchor="start" x="179.36" y="-914.8" font-family="Arial" font-size="10.00">Fail closed • recommendation/confidence remain informational and never confer authority</text>
<polygon fill="#e8f1ff" stroke="none" points="112.49,-849.3 112.49,-905.3 228.99,-905.3 228.99,-849.3 112.49,-849.3"/>
<polygon fill="none" stroke="#5e8cc8" points="112.49,-849.3 112.49,-905.3 228.99,-905.3 228.99,-849.3 112.49,-849.3"/>
<text xml:space="preserve" text-anchor="start" x="124.24" y="-888.8" font-family="Arial" font-weight="bold" font-size="10.00">Evidence assurance</text>
<text xml:space="preserve" text-anchor="start" x="120.49" y="-878.8" font-family="Arial" font-size="10.00">Provenance/attestation</text>
<text xml:space="preserve" text-anchor="start" x="125.74" y="-868.8" font-family="Arial" font-size="10.00">Integrity + freshness</text>
<text xml:space="preserve" text-anchor="start" x="124.24" y="-858.8" font-family="Arial" font-size="10.00">Corroboration/conflict</text>
<polygon fill="#e8f1ff" stroke="none" points="228.99,-849.3 228.99,-905.3 382.99,-905.3 382.99,-849.3 228.99,-849.3"/>
<polygon fill="none" stroke="#5e8cc8" points="228.99,-849.3 228.99,-905.3 382.99,-905.3 382.99,-849.3 228.99,-849.3"/>
<text xml:space="preserve" text-anchor="start" x="262.11" y="-888.8" font-family="Arial" font-weight="bold" font-size="10.00">Identity + authority</text>
<text xml:space="preserve" text-anchor="start" x="256.49" y="-878.8" font-family="Arial" font-size="10.00">Authenticated principal</text>
<text xml:space="preserve" text-anchor="start" x="254.24" y="-868.8" font-family="Arial" font-size="10.00">Role/scope/target class</text>
<text xml:space="preserve" text-anchor="start" x="236.99" y="-858.8" font-family="Arial" font-size="10.00">No confidence&#45;derived authority</text>
<polygon fill="#e8f1ff" stroke="none" points="382.99,-849.3 382.99,-905.3 500.24,-905.3 500.24,-849.3 382.99,-849.3"/>
<polygon fill="none" stroke="#5e8cc8" points="382.99,-849.3 382.99,-905.3 500.24,-905.3 500.24,-849.3 382.99,-849.3"/>
<text xml:space="preserve" text-anchor="start" x="404.11" y="-888.8" font-family="Arial" font-weight="bold" font-size="10.00">Policy + context</text>
<text xml:space="preserve" text-anchor="start" x="406.36" y="-878.8" font-family="Arial" font-size="10.00">Version + digest</text>
<text xml:space="preserve" text-anchor="start" x="390.99" y="-868.8" font-family="Arial" font-size="10.00">Request&#45;reuse controls</text>
<text xml:space="preserve" text-anchor="start" x="400.74" y="-858.8" font-family="Arial" font-size="10.00">Deterministic rules</text>
<polygon fill="#e8f1ff" stroke="none" points="500.24,-849.3 500.24,-905.3 632.49,-905.3 632.49,-849.3 500.24,-849.3"/>
<polygon fill="none" stroke="#5e8cc8" points="500.24,-849.3 500.24,-905.3 632.49,-905.3 632.49,-849.3 500.24,-849.3"/>
<text xml:space="preserve" text-anchor="start" x="534.49" y="-888.8" font-family="Arial" font-weight="bold" font-size="10.00">Consequence</text>
<text xml:space="preserve" text-anchor="start" x="514.24" y="-878.8" font-family="Arial" font-size="10.00">Criticality/dependencies</text>
<text xml:space="preserve" text-anchor="start" x="517.99" y="-868.8" font-family="Arial" font-size="10.00">Blast radius/downtime</text>
<text xml:space="preserve" text-anchor="start" x="508.24" y="-858.8" font-family="Arial" font-size="10.00">Mission/safety/reversibility</text>
<polygon fill="#e7f5ed" stroke="none" points="112.49,-813.3 112.49,-849.3 632.49,-849.3 632.49,-813.3 112.49,-813.3"/>
<polygon fill="none" stroke="#5e8cc8" points="112.49,-813.3 112.49,-849.3 632.49,-849.3 632.49,-813.3 112.49,-813.3"/>
<text xml:space="preserve" text-anchor="start" x="310.24" y="-832.8" font-family="Arial" font-weight="bold" font-size="10.00">Structured decision record</text>
<text xml:space="preserve" text-anchor="start" x="197.36" y="-822.8" font-family="Arial" font-size="10.00">Outcome • reasons • permitted action/parameters • policy binding • context hash</text>
</g>
<!-- intake&#45;&gt;firewall -->
<g id="edge3" class="edge">
<title>intake&#45;&gt;firewall</title>
<path fill="none" stroke="#617286" stroke-width="1.08" d="M372.49,-982.38C372.49,-972.22 372.49,-961.37 372.49,-950.64"/>
<polygon fill="#617286" stroke="#617286" stroke-width="1.08" points="374.94,-950.72 372.49,-943.72 370.04,-950.72 374.94,-950.72"/>
<text xml:space="preserve" text-anchor="middle" x="433.61" y="-959.26" font-family="Arial" font-size="8.20" fill="#40546a">validated request + trusted context</text>
</g>
<!-- audit_intake -->
<g id="node12" class="node">
<title>audit_intake</title>
<path fill="#f0eaf7" stroke="#8064a2" d="M979.6,-1052.05C979.6,-1052.05 917.38,-1052.05 917.38,-1052.05 911.38,-1052.05 905.38,-1046.05 905.38,-1040.05 905.38,-1040.05 905.38,-1028.05 905.38,-1028.05 905.38,-1022.05 911.38,-1016.05 917.38,-1016.05 917.38,-1016.05 979.6,-1016.05 979.6,-1016.05 985.6,-1016.05 991.6,-1022.05 991.6,-1028.05 991.6,-1028.05 991.6,-1040.05 991.6,-1040.05 991.6,-1046.05 985.6,-1052.05 979.6,-1052.05"/>
<text xml:space="preserve" text-anchor="middle" x="948.49" y="-1036.48" font-family="Arial" font-size="8.50" fill="#5d4274">EMIT</text>
<text xml:space="preserve" text-anchor="middle" x="948.49" y="-1025.98" font-family="Arial" font-size="8.50" fill="#5d4274">intake / fail closed</text>
</g>
<!-- intake&#45;&gt;audit_intake -->
<g id="edge11" class="edge">
<title>intake&#45;&gt;audit_intake</title>
<path fill="none" stroke="#8064a2" stroke-width="1.08" stroke-dasharray="1,5" d="M665.97,-1034.05C754.86,-1034.05 843.06,-1034.05 896.66,-1034.05"/>
<polygon fill="#8064a2" stroke="#8064a2" stroke-width="1.08" points="896.66,-1036.5 903.66,-1034.05 896.66,-1031.6 896.66,-1036.5"/>
<text xml:space="preserve" text-anchor="middle" x="785.74" y="-1039.01" font-family="Arial" font-size="8.20" fill="#40546a">accepted or denied</text>
</g>
<!-- outcomes -->
<g id="node5" class="node">
<title>outcomes</title>
<path fill="white" stroke="none" d="M694.24,-781.3C694.24,-781.3 50.73,-781.3 50.73,-781.3 44.74,-781.3 38.74,-775.3 38.74,-769.3 38.74,-769.3 38.74,-687.3 38.74,-687.3 38.74,-681.3 44.74,-675.3 50.74,-675.3 50.74,-675.3 694.24,-675.3 694.24,-675.3 700.24,-675.3 706.24,-681.3 706.24,-687.3 706.24,-687.3 706.24,-769.3 706.24,-769.3 706.24,-775.3 700.24,-781.3 694.24,-781.3"/>
<polygon fill="none" stroke="#7f95aa" points="38.74,-675.3 38.74,-781.3 706.24,-781.3 706.24,-675.3 38.74,-675.3"/>
<polygon fill="#e7ebef" stroke="none" points="39.74,-752.3 39.74,-780.3 705.24,-780.3 705.24,-752.3 39.74,-752.3"/>
<polygon fill="none" stroke="#7f95aa" points="39.74,-752.3 39.74,-780.3 705.24,-780.3 705.24,-752.3 39.74,-752.3"/>
<text xml:space="preserve" text-anchor="start" x="140.36" y="-763.8" font-family="Arial" font-weight="bold" font-size="10.00">DECISION OUTCOMES</text>
<text xml:space="preserve" text-anchor="start" x="250.61" y="-763.8" font-family="Arial" font-size="10.00"> &#45; DENY/ESCALATE terminate before authorization; only ALLOW edges continue</text>
<polygon fill="#fdebec" stroke="none" points="39.74,-676.3 39.74,-752.3 179.49,-752.3 179.49,-676.3 39.74,-676.3"/>
<polygon fill="none" stroke="#7f95aa" points="39.74,-676.3 39.74,-752.3 179.49,-752.3 179.49,-676.3 39.74,-676.3"/>
<text xml:space="preserve" text-anchor="start" x="47.74" y="-720.8" font-family="Arial" font-weight="bold" font-size="10.00" fill="#8b3a3a">DENY &#45; NO&#45;ACTION PATH</text>
<text xml:space="preserve" text-anchor="start" x="64.61" y="-710.8" font-family="Arial" font-size="10.00" fill="#8b3a3a">No token • no broker</text>
<text xml:space="preserve" text-anchor="start" x="70.99" y="-700.8" font-family="Arial" font-size="10.00" fill="#8b3a3a">Target unchanged</text>
<polygon fill="#fff4dd" stroke="none" points="179.49,-676.3 179.49,-752.3 386.74,-752.3 386.74,-676.3 179.49,-676.3"/>
<polygon fill="none" stroke="#7f95aa" points="179.49,-676.3 179.49,-752.3 386.74,-752.3 386.74,-676.3 179.49,-676.3"/>
<text xml:space="preserve" text-anchor="start" x="208.49" y="-735.8" font-family="Arial" font-weight="bold" font-size="10.00" fill="#7a5310">ESCALATE &#45; NO&#45;ACTION PATH</text>
<text xml:space="preserve" text-anchor="start" x="207.74" y="-725.8" font-family="Arial" font-size="10.00" fill="#7a5310">No token/broker; target unchanged</text>
<text xml:space="preserve" text-anchor="start" x="212.99" y="-715.8" font-family="Arial" font-size="10.00" fill="#7a5310">Bounded HUMAN_APPROVER</text>
<text xml:space="preserve" text-anchor="start" x="193.86" y="-705.8" font-family="Arial" font-size="10.00" fill="#7a5310">Exact scope/authority/expiry • single use</text>
<text xml:space="preserve" text-anchor="start" x="187.49" y="-695.8" font-family="Arial" font-size="10.00" fill="#7a5310">Receipt returns for firewall reevaluation only</text>
<text xml:space="preserve" text-anchor="start" x="233.99" y="-685.8" font-family="Arial" font-size="10.00" fill="#7a5310">Never direct execution</text>
<polygon fill="#e7f5ed" stroke="none" points="386.74,-676.3 386.74,-752.3 552.74,-752.3 552.74,-676.3 386.74,-676.3"/>
<polygon fill="none" stroke="#7f95aa" points="386.74,-676.3 386.74,-752.3 552.74,-752.3 552.74,-676.3 386.74,-676.3"/>
<text xml:space="preserve" text-anchor="start" x="451.36" y="-720.8" font-family="Arial" font-weight="bold" font-size="10.00" fill="#356a47">ALLOW</text>
<text xml:space="preserve" text-anchor="start" x="394.74" y="-710.8" font-family="Arial" font-size="10.00" fill="#356a47">Exact permitted action/parameters</text>
<text xml:space="preserve" text-anchor="start" x="413.49" y="-700.8" font-family="Arial" font-size="10.00" fill="#356a47">may request authorization</text>
<polygon fill="#e7f5ed" stroke="none" points="552.74,-676.3 552.74,-752.3 705.24,-752.3 705.24,-676.3 552.74,-676.3"/>
<polygon fill="none" stroke="#7f95aa" points="552.74,-676.3 552.74,-752.3 705.24,-752.3 705.24,-676.3 552.74,-676.3"/>
<text xml:space="preserve" text-anchor="start" x="570.49" y="-720.8" font-family="Arial" font-weight="bold" font-size="10.00" fill="#356a47">ALLOW_CONSTRAINED</text>
<text xml:space="preserve" text-anchor="start" x="560.74" y="-710.8" font-family="Arial" font-size="10.00" fill="#356a47">Only firewall&#45;constrained scope</text>
<text xml:space="preserve" text-anchor="start" x="572.74" y="-700.8" font-family="Arial" font-size="10.00" fill="#356a47">may request authorization</text>
</g>
<!-- firewall&#45;&gt;outcomes -->
<g id="edge4" class="edge">
<title>firewall:s&#45;&gt;outcomes:n</title>
<path fill="none" stroke="#617286" stroke-width="1.08" d="M372.49,-812.3C372.49,-812.3 372.49,-798.95 372.49,-789.77"/>
<polygon fill="#617286" stroke="#617286" stroke-width="1.08" points="374.94,-789.93 372.49,-782.93 370.04,-789.93 374.94,-789.93"/>
</g>
<!-- audit_firewall -->
<g id="node13" class="node">
<title>audit_firewall</title>
<path fill="#f0eaf7" stroke="#8064a2" d="M984.1,-895.3C984.1,-895.3 912.88,-895.3 912.88,-895.3 906.88,-895.3 900.88,-889.3 900.88,-883.3 900.88,-883.3 900.88,-871.3 900.88,-871.3 900.88,-865.3 906.88,-859.3 912.88,-859.3 912.88,-859.3 984.1,-859.3 984.1,-859.3 990.1,-859.3 996.1,-865.3 996.1,-871.3 996.1,-871.3 996.1,-883.3 996.1,-883.3 996.1,-889.3 990.1,-895.3 984.1,-895.3"/>
<text xml:space="preserve" text-anchor="middle" x="948.49" y="-879.73" font-family="Arial" font-size="8.50" fill="#5d4274">EMIT</text>
<text xml:space="preserve" text-anchor="middle" x="948.49" y="-869.23" font-family="Arial" font-size="8.50" fill="#5d4274">evaluation / decision</text>
</g>
<!-- firewall&#45;&gt;audit_firewall -->
<g id="edge12" class="edge">
<title>firewall&#45;&gt;audit_firewall</title>
<path fill="none" stroke="#8064a2" stroke-width="1.08" stroke-dasharray="1,5" d="M633.1,-877.3C730.12,-877.3 831.32,-877.3 892.13,-877.3"/>
<polygon fill="#8064a2" stroke="#8064a2" stroke-width="1.08" points="891.8,-879.75 898.8,-877.3 891.8,-874.85 891.8,-879.75"/>
<text xml:space="preserve" text-anchor="middle" x="767.18" y="-882.26" font-family="Arial" font-size="8.20" fill="#40546a">deterministic result</text>
</g>
<!-- auth -->
<g id="node6" class="node">
<title>auth</title>
<path fill="#e7f5ed" stroke="#679b78" d="M743.22,-585.55C743.22,-585.55 513.75,-585.55 513.75,-585.55 507.75,-585.55 501.75,-579.55 501.75,-573.55 501.75,-573.55 501.75,-536.59 501.75,-536.59 501.75,-530.59 507.75,-524.59 513.75,-524.59 513.75,-524.59 743.22,-524.59 743.22,-524.59 749.22,-524.59 755.22,-530.59 755.22,-536.59 755.22,-536.59 755.22,-573.55 755.22,-573.55 755.22,-579.55 749.22,-585.55 743.22,-585.55"/>
<text xml:space="preserve" text-anchor="middle" x="628.49" y="-569.57" font-family="Arial" font-size="10.00">SCOPED AUTHORIZATION</text>
<text xml:space="preserve" text-anchor="middle" x="628.49" y="-557.57" font-family="Arial" font-size="10.00">Signed, single&#45;use, process&#45;instance token</text>
<text xml:space="preserve" text-anchor="middle" x="628.49" y="-545.57" font-family="Arial" font-size="10.00">Binds request/decision/agent/action/target/parameters</text>
<text xml:space="preserve" text-anchor="middle" x="628.49" y="-533.57" font-family="Arial" font-size="10.00">expiry/policy/context/target&#45;state precondition</text>
</g>
<!-- outcomes&#45;&gt;auth -->
<g id="edge9" class="edge">
<title>outcomes:s&#45;&gt;auth:n</title>
<path fill="none" stroke="#617286" stroke-width="1.08" d="M469.74,-675.3C469.74,-675.3 590.2,-607.96 621.25,-590.59"/>
<polygon fill="#617286" stroke="#617286" stroke-width="1.08" points="622.14,-592.9 627.06,-587.35 619.75,-588.63 622.14,-592.9"/>
<text xml:space="preserve" text-anchor="middle" x="551.31" y="-652.51" font-family="Arial" font-size="8.20" fill="#40546a">exact permitted scope</text>
</g>
<!-- outcomes&#45;&gt;auth -->
<g id="edge10" class="edge">
<title>outcomes:s&#45;&gt;auth:n</title>
<path fill="none" stroke="#617286" stroke-width="1.08" d="M628.99,-675.3C628.99,-675.3 628.66,-617.27 628.53,-595.06"/>
<polygon fill="#617286" stroke="#617286" stroke-width="1.08" points="630.98,-595.17 628.49,-588.18 626.08,-595.2 630.98,-595.17"/>
<text xml:space="preserve" text-anchor="middle" x="661.14" y="-652.51" font-family="Arial" font-size="8.20" fill="#40546a">constrained scope</text>
</g>
<!-- audit_outcome -->
<g id="node14" class="node">
<title>audit_outcome</title>
<path fill="#f0eaf7" stroke="#8064a2" d="M1001.72,-746.3C1001.72,-746.3 895.25,-746.3 895.25,-746.3 889.25,-746.3 883.25,-740.3 883.25,-734.3 883.25,-734.3 883.25,-722.3 883.25,-722.3 883.25,-716.3 889.25,-710.3 895.25,-710.3 895.25,-710.3 1001.72,-710.3 1001.72,-710.3 1007.72,-710.3 1013.72,-716.3 1013.72,-722.3 1013.72,-722.3 1013.72,-734.3 1013.72,-734.3 1013.72,-740.3 1007.72,-746.3 1001.72,-746.3"/>
<text xml:space="preserve" text-anchor="middle" x="948.49" y="-730.73" font-family="Arial" font-size="8.50" fill="#5d4274">EMIT</text>
<text xml:space="preserve" text-anchor="middle" x="948.49" y="-720.23" font-family="Arial" font-size="8.50" fill="#5d4274">DENY / ESCALATE / ALLOW</text>
</g>
<!-- outcomes&#45;&gt;audit_outcome -->
<g id="edge13" class="edge">
<title>outcomes:e&#45;&gt;audit_outcome:w</title>
<path fill="none" stroke="#8064a2" stroke-width="1.08" stroke-dasharray="1,5" d="M706.24,-728.3C706.24,-728.3 717.49,-741.3 717.49,-741.3 717.49,-741.3 871.99,-741.3 871.99,-741.3 871.99,-741.3 873.71,-739.32 875.8,-736.9"/>
<polygon fill="#8064a2" stroke="#8064a2" stroke-width="1.08" points="879.45,-736.43 882.18,-729.54 875.75,-733.22 879.45,-736.43"/>
<text xml:space="preserve" text-anchor="middle" x="794.74" y="-743.26" font-family="Arial" font-size="8.20" fill="#40546a">DENY/ESCALATE no action; ALLOW paths</text>
</g>
<!-- broker -->
<g id="node7" class="node">
<title>broker</title>
<path fill="#e7f5ed" stroke="#679b78" d="M752.1,-484.84C752.1,-484.84 548.88,-484.84 548.88,-484.84 542.88,-484.84 536.88,-478.84 536.88,-472.84 536.88,-472.84 536.88,-447.88 536.88,-447.88 536.88,-441.88 542.88,-435.88 548.88,-435.88 548.88,-435.88 752.1,-435.88 752.1,-435.88 758.1,-435.88 764.1,-441.88 764.1,-447.88 764.1,-447.88 764.1,-472.84 764.1,-472.84 764.1,-478.84 758.1,-484.84 752.1,-484.84"/>
<text xml:space="preserve" text-anchor="middle" x="650.49" y="-468.86" font-family="Arial" font-size="10.00">MANDATORY ACTION BROKER</text>
<text xml:space="preserve" text-anchor="middle" x="650.49" y="-456.86" font-family="Arial" font-size="10.00">Exact token + scope + state validation</text>
<text xml:space="preserve" text-anchor="middle" x="650.49" y="-444.86" font-family="Arial" font-size="10.00">Consumes before attempt; rejection fails closed</text>
</g>
<!-- auth&#45;&gt;broker -->
<g id="edge5" class="edge">
<title>auth&#45;&gt;broker</title>
<path fill="none" stroke="#617286" stroke-width="1.08" d="M635.57,-524.23C637.9,-514.38 640.51,-503.4 642.88,-493.4"/>
<polygon fill="#617286" stroke="#617286" stroke-width="1.08" points="645.2,-494.25 644.43,-486.87 640.43,-493.11 645.2,-494.25"/>
<text xml:space="preserve" text-anchor="middle" x="670.8" y="-501.8" font-family="Arial" font-size="8.20" fill="#40546a">mandatory token</text>
</g>
<!-- audit_auth -->
<g id="node16" class="node">
<title>audit_auth</title>
<path fill="#f0eaf7" stroke="#8064a2" d="M983.35,-478.36C983.35,-478.36 901.62,-478.36 901.62,-478.36 895.62,-478.36 889.62,-472.36 889.62,-466.36 889.62,-466.36 889.62,-454.36 889.62,-454.36 889.62,-448.36 895.62,-442.36 901.62,-442.36 901.62,-442.36 983.35,-442.36 983.35,-442.36 989.35,-442.36 995.35,-448.36 995.35,-454.36 995.35,-454.36 995.35,-466.36 995.35,-466.36 995.35,-472.36 989.35,-478.36 983.35,-478.36"/>
<text xml:space="preserve" text-anchor="middle" x="942.49" y="-462.79" font-family="Arial" font-size="8.50" fill="#5d4274">EMIT</text>
<text xml:space="preserve" text-anchor="middle" x="942.49" y="-452.29" font-family="Arial" font-size="8.50" fill="#5d4274">authorization / rejection</text>
</g>
<!-- auth&#45;&gt;audit_auth -->
<g id="edge14" class="edge">
<title>auth&#45;&gt;audit_auth</title>
<path fill="none" stroke="#8064a2" stroke-width="1.08" stroke-dasharray="1,5" d="M730,-524.1C779.82,-509.39 838.21,-492.15 881.15,-479.47"/>
<polygon fill="#8064a2" stroke="#8064a2" stroke-width="1.08" points="881.67,-481.87 887.69,-477.54 880.28,-477.17 881.67,-481.87"/>
<text xml:space="preserve" text-anchor="middle" x="835.78" y="-501.8" font-family="Arial" font-size="8.20" fill="#40546a">issue/reject/expiry</text>
</g>
<!-- target -->
<g id="node8" class="node">
<title>target</title>
<path fill="#e7f5ed" stroke="#679b78" d="M753.22,-396.13C753.22,-396.13 547.75,-396.13 547.75,-396.13 541.75,-396.13 535.75,-390.13 535.75,-384.13 535.75,-384.13 535.75,-359.17 535.75,-359.17 535.75,-353.17 541.75,-347.17 547.75,-347.17 547.75,-347.17 753.22,-347.17 753.22,-347.17 759.22,-347.17 765.22,-353.17 765.22,-359.17 765.22,-359.17 765.22,-384.13 765.22,-384.13 765.22,-390.13 759.22,-396.13 753.22,-396.13"/>
<text xml:space="preserve" text-anchor="middle" x="650.49" y="-380.15" font-family="Arial" font-size="10.00">IN&#45;MEMORY SYNTHETIC TARGET</text>
<text xml:space="preserve" text-anchor="middle" x="650.49" y="-368.15" font-family="Arial" font-size="10.00">Simulated NETWORK_ISOLATE state only</text>
<text xml:space="preserve" text-anchor="middle" x="650.49" y="-356.15" font-family="Arial" font-size="10.00">No public apply path • no network/live connector</text>
</g>
<!-- broker&#45;&gt;target -->
<g id="edge6" class="edge">
<title>broker&#45;&gt;target</title>
<path fill="none" stroke="#617286" stroke-width="1.08" d="M650.49,-435.67C650.49,-426.28 650.49,-415.34 650.49,-405.23"/>
<polygon fill="#617286" stroke="#617286" stroke-width="1.08" points="652.94,-405.25 650.49,-398.25 648.04,-405.25 652.94,-405.25"/>
<text xml:space="preserve" text-anchor="middle" x="679.74" y="-413.09" font-family="Arial" font-size="8.20" fill="#40546a">private capability</text>
</g>
<!-- audit_broker -->
<g id="node17" class="node">
<title>audit_broker</title>
<path fill="#f0eaf7" stroke="#8064a2" d="M967.72,-389.65C967.72,-389.65 915.25,-389.65 915.25,-389.65 909.25,-389.65 903.25,-383.65 903.25,-377.65 903.25,-377.65 903.25,-365.65 903.25,-365.65 903.25,-359.65 909.25,-353.65 915.25,-353.65 915.25,-353.65 967.72,-353.65 967.72,-353.65 973.72,-353.65 979.72,-359.65 979.72,-365.65 979.72,-365.65 979.72,-377.65 979.72,-377.65 979.72,-383.65 973.72,-389.65 967.72,-389.65"/>
<text xml:space="preserve" text-anchor="middle" x="941.49" y="-374.08" font-family="Arial" font-size="8.50" fill="#5d4274">EMIT</text>
<text xml:space="preserve" text-anchor="middle" x="941.49" y="-363.58" font-family="Arial" font-size="8.50" fill="#5d4274">broker / attempt</text>
</g>
<!-- broker&#45;&gt;audit_broker -->
<g id="edge15" class="edge">
<title>broker&#45;&gt;audit_broker</title>
<path fill="none" stroke="#8064a2" stroke-width="1.08" stroke-dasharray="1,5" d="M730.77,-435.44C783.4,-419.75 850.38,-399.8 894.53,-386.64"/>
<polygon fill="#8064a2" stroke="#8064a2" stroke-width="1.08" points="895.2,-389 901.2,-384.65 893.8,-384.3 895.2,-389"/>
<text xml:space="preserve" text-anchor="middle" x="833.96" y="-413.09" font-family="Arial" font-size="8.20" fill="#40546a">reject or attempt</text>
</g>
<!-- observer -->
<g id="node9" class="node">
<title>observer</title>
<path fill="#f0eaf7" stroke="#8064a2" d="M740.6,-307.42C740.6,-307.42 582.38,-307.42 582.38,-307.42 576.38,-307.42 570.38,-301.42 570.38,-295.42 570.38,-295.42 570.38,-270.46 570.38,-270.46 570.38,-264.46 576.38,-258.46 582.38,-258.46 582.38,-258.46 740.6,-258.46 740.6,-258.46 746.6,-258.46 752.6,-264.46 752.6,-270.46 752.6,-270.46 752.6,-295.42 752.6,-295.42 752.6,-301.42 746.6,-307.42 740.6,-307.42"/>
<text xml:space="preserve" text-anchor="middle" x="661.49" y="-291.44" font-family="Arial" font-size="10.00">READ&#45;ONLY OBSERVER</text>
<text xml:space="preserve" text-anchor="middle" x="661.49" y="-279.44" font-family="Arial" font-size="10.00">Functionally separate target readback</text>
<text xml:space="preserve" text-anchor="middle" x="661.49" y="-267.44" font-family="Arial" font-size="10.00">Does not trust the broker return value</text>
</g>
<!-- target&#45;&gt;observer -->
<g id="edge7" class="edge">
<title>target&#45;&gt;observer</title>
<path fill="none" stroke="#617286" stroke-width="1.08" d="M653.49,-346.96C654.69,-337.48 656.1,-326.4 657.39,-316.21"/>
<polygon fill="#617286" stroke="#617286" stroke-width="1.08" points="659.79,-316.78 658.24,-309.53 654.93,-316.16 659.79,-316.78"/>
<text xml:space="preserve" text-anchor="middle" x="696.06" y="-324.38" font-family="Arial" font-size="8.20" fill="#40546a">independent readback</text>
</g>
<!-- audit_target -->
<g id="node18" class="node">
<title>audit_target</title>
<path fill="#f0eaf7" stroke="#8064a2" d="M960.97,-300.94C960.97,-300.94 916,-300.94 916,-300.94 910,-300.94 904,-294.94 904,-288.94 904,-288.94 904,-276.94 904,-276.94 904,-270.94 910,-264.94 916,-264.94 916,-264.94 960.97,-264.94 960.97,-264.94 966.97,-264.94 972.97,-270.94 972.97,-276.94 972.97,-276.94 972.97,-288.94 972.97,-288.94 972.97,-294.94 966.97,-300.94 960.97,-300.94"/>
<text xml:space="preserve" text-anchor="middle" x="938.49" y="-285.37" font-family="Arial" font-size="8.50" fill="#5d4274">EMIT</text>
<text xml:space="preserve" text-anchor="middle" x="938.49" y="-274.87" font-family="Arial" font-size="8.50" fill="#5d4274">effect / failure</text>
</g>
<!-- target&#45;&gt;audit_target -->
<g id="edge16" class="edge">
<title>target&#45;&gt;audit_target</title>
<path fill="none" stroke="#8064a2" stroke-width="1.08" stroke-dasharray="1,5" d="M729.94,-346.73C783.44,-330.62 851.92,-310 895.51,-296.88"/>
<polygon fill="#8064a2" stroke="#8064a2" stroke-width="1.08" points="896.05,-299.27 902.05,-294.91 894.64,-294.58 896.05,-299.27"/>
<text xml:space="preserve" text-anchor="middle" x="829.75" y="-324.38" font-family="Arial" font-size="8.20" fill="#40546a">effect or failure</text>
</g>
<!-- verifier -->
<g id="node10" class="node">
<title>verifier</title>
<path fill="#f0eaf7" stroke="#8064a2" d="M782.22,-218.71C782.22,-218.71 540.75,-218.71 540.75,-218.71 534.75,-218.71 528.75,-212.71 528.75,-206.71 528.75,-206.71 528.75,-169.75 528.75,-169.75 528.75,-163.75 534.75,-157.75 540.75,-157.75 540.75,-157.75 782.22,-157.75 782.22,-157.75 788.22,-157.75 794.22,-163.75 794.22,-169.75 794.22,-169.75 794.22,-206.71 794.22,-206.71 794.22,-212.71 788.22,-218.71 782.22,-218.71"/>
<text xml:space="preserve" text-anchor="middle" x="661.49" y="-202.73" font-family="Arial" font-size="10.00">POST&#45;ACTION VERIFIER</text>
<text xml:space="preserve" text-anchor="middle" x="661.49" y="-190.73" font-family="Arial" font-size="10.00">VERIFIED • FAILED • PARTIAL</text>
<text xml:space="preserve" text-anchor="middle" x="661.49" y="-178.73" font-family="Arial" font-size="10.00">UNEXPECTED_EFFECT • ROLLBACK_REQUIRED</text>
<text xml:space="preserve" text-anchor="middle" x="661.49" y="-166.73" font-family="Arial" font-size="10.00">Same&#45;project implementation; not external independence</text>
</g>
<!-- observer&#45;&gt;verifier -->
<g id="edge8" class="edge">
<title>observer&#45;&gt;verifier</title>
<path fill="none" stroke="#617286" stroke-width="1.08" d="M661.49,-258.06C661.49,-248.76 661.49,-237.86 661.49,-227.51"/>
<polygon fill="#617286" stroke="#617286" stroke-width="1.08" points="663.94,-227.64 661.49,-220.64 659.04,-227.64 663.94,-227.64"/>
<text xml:space="preserve" text-anchor="middle" x="687.74" y="-235.67" font-family="Arial" font-size="8.20" fill="#40546a">observed state</text>
</g>
<!-- accountability -->
<g id="node11" class="node">
<title>accountability</title>
<path fill="white" stroke="none" d="M1038.74,-112C1038.74,-112 284.24,-112 284.24,-112 278.23,-112 272.24,-106 272.24,-100 272.24,-100 272.24,-12 272.24,-12 272.24,-6 278.24,0 284.24,0 284.24,0 1038.74,0 1038.74,0 1044.74,0 1050.74,-6 1050.74,-12 1050.74,-12 1050.74,-100 1050.74,-100 1050.74,-106 1044.74,-112 1038.74,-112"/>
<polygon fill="none" stroke="#8064a2" points="272.24,0 272.24,-112 1050.74,-112 1050.74,0 272.24,0"/>
<polygon fill="#e8dff1" stroke="none" points="273.24,-83 273.24,-111 1049.74,-111 1049.74,-83 273.24,-83"/>
<polygon fill="none" stroke="#8064a2" points="273.24,-83 273.24,-111 1049.74,-111 1049.74,-83 273.24,-83"/>
<text xml:space="preserve" text-anchor="start" x="436.86" y="-94.5" font-family="Arial" font-weight="bold" font-size="10.00">LIFECYCLE ACCOUNTABILITY</text>
<text xml:space="preserve" text-anchor="start" x="585.36" y="-94.5" font-family="Arial" font-size="10.00"> &#45; every path/gate emits; records behavior but never creates authority</text>
<polygon fill="#f0eaf7" stroke="none" points="273.24,-37 273.24,-83 415.24,-83 415.24,-37 273.24,-37"/>
<polygon fill="none" stroke="#8064a2" points="273.24,-37 273.24,-83 415.24,-83 415.24,-37 273.24,-37"/>
<text xml:space="preserve" text-anchor="start" x="300.36" y="-66.5" font-family="Arial" font-weight="bold" font-size="10.00">Intake + fail closed</text>
<text xml:space="preserve" text-anchor="start" x="292.11" y="-56.5" font-family="Arial" font-size="10.00">request/identity/schema</text>
<text xml:space="preserve" text-anchor="start" x="281.24" y="-46.5" font-family="Arial" font-size="10.00">accepted or denied; no effect</text>
<polygon fill="#f0eaf7" stroke="none" points="415.24,-37 415.24,-83 576.74,-83 576.74,-37 415.24,-37"/>
<polygon fill="none" stroke="#8064a2" points="415.24,-37 415.24,-83 576.74,-83 576.74,-37 415.24,-37"/>
<text xml:space="preserve" text-anchor="start" x="447.61" y="-66.5" font-family="Arial" font-weight="bold" font-size="10.00">Decision + no action</text>
<text xml:space="preserve" text-anchor="start" x="444.24" y="-56.5" font-family="Arial" font-size="10.00">policy/outcome/reasons</text>
<text xml:space="preserve" text-anchor="start" x="423.24" y="-46.5" font-family="Arial" font-size="10.00">DENY/ESCALATE terminal state</text>
<polygon fill="#f0eaf7" stroke="none" points="576.74,-37 576.74,-83 702.99,-83 702.99,-37 576.74,-37"/>
<polygon fill="none" stroke="#8064a2" points="576.74,-37 576.74,-83 702.99,-83 702.99,-37 576.74,-37"/>
<text xml:space="preserve" text-anchor="start" x="597.86" y="-66.5" font-family="Arial" font-weight="bold" font-size="10.00">Approval lifecycle</text>
<text xml:space="preserve" text-anchor="start" x="584.74" y="-56.5" font-family="Arial" font-size="10.00">requirement/receipt/reuse</text>
<text xml:space="preserve" text-anchor="start" x="603.11" y="-46.5" font-family="Arial" font-size="10.00">reevaluation only</text>
<polygon fill="#f0eaf7" stroke="none" points="702.99,-37 702.99,-83 881.61,-83 881.61,-37 702.99,-37"/>
<polygon fill="none" stroke="#8064a2" points="702.99,-37 702.99,-83 881.61,-83 881.61,-37 702.99,-37"/>
<text xml:space="preserve" text-anchor="start" x="737.17" y="-66.5" font-family="Arial" font-weight="bold" font-size="10.00">Authorization + attempt</text>
<text xml:space="preserve" text-anchor="start" x="745.8" y="-56.5" font-family="Arial" font-size="10.00">issue/reject/consume</text>
<text xml:space="preserve" text-anchor="start" x="724.8" y="-46.5" font-family="Arial" font-size="10.00">broker/target success or failure</text>
<polygon fill="#f0eaf7" stroke="none" points="881.61,-37 881.61,-83 1049.74,-83 1049.74,-37 881.61,-37"/>
<polygon fill="none" stroke="#8064a2" points="881.61,-37 881.61,-83 1049.74,-83 1049.74,-37 881.61,-37"/>
<text xml:space="preserve" text-anchor="start" x="911.3" y="-66.5" font-family="Arial" font-weight="bold" font-size="10.00">Readback + final status</text>
<text xml:space="preserve" text-anchor="start" x="922.17" y="-56.5" font-family="Arial" font-size="10.00">verified/failed/partial</text>
<text xml:space="preserve" text-anchor="start" x="903.42" y="-46.5" font-family="Arial" font-size="10.00">unexpected/rollback required</text>
<polygon fill="#f7f3fa" stroke="none" points="273.24,-1 273.24,-37 702.99,-37 702.99,-1 273.24,-1"/>
<polygon fill="none" stroke="#8064a2" points="273.24,-1 273.24,-37 702.99,-37 702.99,-1 273.24,-1"/>
<text xml:space="preserve" text-anchor="start" x="425.11" y="-20.5" font-family="Arial" font-weight="bold" font-size="10.00">Tamper&#45;evident audit chain</text>
<text xml:space="preserve" text-anchor="start" x="293.86" y="-10.5" font-family="Arial" font-size="10.00">Closed lifecycle ordering • exact correlation/binding validation • no missing terminal paths</text>
<polygon fill="#f7f3fa" stroke="none" points="702.99,-1 702.99,-37 1049.74,-37 1049.74,-1 702.99,-1"/>
<polygon fill="none" stroke="#8064a2" points="702.99,-1 702.99,-37 1049.74,-37 1049.74,-1 702.99,-1"/>
<text xml:space="preserve" text-anchor="start" x="830.61" y="-20.5" font-family="Arial" font-weight="bold" font-size="10.00">Operational metrics</text>
<text xml:space="preserve" text-anchor="start" x="710.99" y="-10.5" font-family="Arial" font-size="10.00">Outcomes/policy/conflicts/latency • approval/auth/broker/verification failures</text>
</g>
<!-- verifier&#45;&gt;accountability -->
<!-- audit_verifier -->
<g id="node19" class="node">
<title>audit_verifier</title>
<path fill="#f0eaf7" stroke="#8064a2" d="M975.72,-206.23C975.72,-206.23 899.25,-206.23 899.25,-206.23 893.25,-206.23 887.25,-200.23 887.25,-194.23 887.25,-194.23 887.25,-182.23 887.25,-182.23 887.25,-176.23 893.25,-170.23 899.25,-170.23 899.25,-170.23 975.72,-170.23 975.72,-170.23 981.72,-170.23 987.72,-176.23 987.72,-182.23 987.72,-182.23 987.72,-194.23 987.72,-194.23 987.72,-200.23 981.72,-206.23 975.72,-206.23"/>
<text xml:space="preserve" text-anchor="middle" x="937.49" y="-190.66" font-family="Arial" font-size="8.50" fill="#5d4274">EMIT</text>
<text xml:space="preserve" text-anchor="middle" x="937.49" y="-180.16" font-family="Arial" font-size="8.50" fill="#5d4274">readback / final status</text>
</g>
<!-- verifier&#45;&gt;audit_verifier -->
<g id="edge17" class="edge">
<title>verifier&#45;&gt;audit_verifier</title>
<path fill="none" stroke="#8064a2" stroke-width="1.08" stroke-dasharray="1,5" d="M794.63,-188.23C824.11,-188.23 853.87,-188.23 878.55,-188.23"/>
<polygon fill="#8064a2" stroke="#8064a2" stroke-width="1.08" points="878.42,-190.68 885.42,-188.23 878.42,-185.78 878.42,-190.68"/>
<text xml:space="preserve" text-anchor="middle" x="840.74" y="-193.19" font-family="Arial" font-size="8.20" fill="#40546a">readback + terminal</text>
</g>
<!-- audit_intake&#45;&gt;audit_firewall -->
<g id="edge18" class="edge">
<title>audit_intake&#45;&gt;audit_firewall</title>
<path fill="none" stroke="#8064a2" stroke-width="1.08" stroke-dasharray="1,5" d="M948.49,-1015.6C948.49,-985.72 948.49,-925.12 948.49,-895.45"/>
</g>
<!-- audit_firewall&#45;&gt;audit_outcome -->
<g id="edge19" class="edge">
<title>audit_firewall&#45;&gt;audit_outcome</title>
<path fill="none" stroke="#8064a2" stroke-width="1.08" stroke-dasharray="1,5" d="M948.49,-858.86C948.49,-830.57 948.49,-774.99 948.49,-746.72"/>
</g>
<!-- audit_approval -->
<g id="node15" class="node">
<title>audit_approval</title>
<path fill="#f0eaf7" stroke="#8064a2" d="M987.22,-573.07C987.22,-573.07 907.75,-573.07 907.75,-573.07 901.75,-573.07 895.75,-567.07 895.75,-561.07 895.75,-561.07 895.75,-549.07 895.75,-549.07 895.75,-543.07 901.75,-537.07 907.75,-537.07 907.75,-537.07 987.22,-537.07 987.22,-537.07 993.22,-537.07 999.22,-543.07 999.22,-549.07 999.22,-549.07 999.22,-561.07 999.22,-561.07 999.22,-567.07 993.22,-573.07 987.22,-573.07"/>
<text xml:space="preserve" text-anchor="middle" x="947.49" y="-557.5" font-family="Arial" font-size="8.50" fill="#5d4274">EMIT</text>
<text xml:space="preserve" text-anchor="middle" x="947.49" y="-547" font-family="Arial" font-size="8.50" fill="#5d4274">approval / reevaluation</text>
</g>
<!-- audit_outcome&#45;&gt;audit_approval -->
<g id="edge20" class="edge">
<title>audit_outcome&#45;&gt;audit_approval</title>
<path fill="none" stroke="#8064a2" stroke-width="1.08" stroke-dasharray="1,5" d="M948.38,-709.94C948.19,-677.12 947.78,-606.33 947.59,-573.48"/>
</g>
<!-- audit_approval&#45;&gt;audit_auth -->
<g id="edge21" class="edge">
<title>audit_approval&#45;&gt;audit_auth</title>
<path fill="none" stroke="#8064a2" stroke-width="1.08" stroke-dasharray="1,5" d="M946.54,-536.63C945.65,-520.06 944.31,-495.27 943.42,-478.72"/>
</g>
<!-- audit_auth&#45;&gt;audit_broker -->
<g id="edge22" class="edge">
<title>audit_auth&#45;&gt;audit_broker</title>
<path fill="none" stroke="#8064a2" stroke-width="1.08" stroke-dasharray="1,5" d="M942.29,-442.23C942.11,-427.13 941.86,-405.22 941.69,-390.04"/>
</g>
<!-- audit_broker&#45;&gt;audit_target -->
<g id="edge23" class="edge">
<title>audit_broker&#45;&gt;audit_target</title>
<path fill="none" stroke="#8064a2" stroke-width="1.08" stroke-dasharray="1,5" d="M940.89,-353.52C940.37,-338.42 939.61,-316.51 939.09,-301.33"/>
</g>
<!-- audit_target&#45;&gt;audit_verifier -->
<g id="edge24" class="edge">
<title>audit_target&#45;&gt;audit_verifier</title>
<path fill="none" stroke="#8064a2" stroke-width="1.08" stroke-dasharray="1,5" d="M938.3,-264.5C938.12,-247.93 937.85,-223.14 937.67,-206.59"/>
</g>
<!-- audit_verifier&#45;&gt;accountability -->
<g id="edge25" class="edge">
<title>audit_verifier&#45;&gt;accountability:n</title>
<path fill="none" stroke="#8064a2" stroke-width="1.08" stroke-dasharray="1,5" d="M901.44,-169.83C877.14,-158.1 849.49,-144.75 849.49,-144.75 849.49,-144.75 706.19,-119.79 669.81,-113.45"/>
<polygon fill="#8064a2" stroke="#8064a2" stroke-width="1.08" points="670.41,-111.07 663.1,-112.28 669.57,-115.9 670.41,-111.07"/>
<text xml:space="preserve" text-anchor="middle" x="842.19" y="-128.96" font-family="Arial" font-size="8.20" fill="#40546a">closed lifecycle + metrics</text>
</g>
</g>
</svg>
