<?xml version="1.0" encoding="UTF-8" standalone="no"?>
<!DOCTYPE svg PUBLIC "-//W3C//DTD SVG 1.1//EN"
 "http://www.w3.org/Graphics/SVG/1.1/DTD/svg11.dtd">
<!-- Generated by graphviz version 15.1.1 (20260805.0921)
 -->
<!-- Title: stage_a_durable_adapter_reconciliation Pages: 1 -->
<svg width="1706pt" height="604pt"
 viewBox="0.00 0.00 1706.00 604.00" xmlns="http://www.w3.org/2000/svg" xmlns:xlink="http://www.w3.org/1999/xlink">
<g id="graph0" class="graph" transform="scale(1 1) rotate(0) translate(21.6 582.35)">
<title>stage_a_durable_adapter_reconciliation</title>
<polygon fill="white" stroke="none" points="-21.6,21.6 -21.6,-582.35 1684.85,-582.35 1684.85,21.6 -21.6,21.6"/>
<text xml:space="preserve" text-anchor="middle" x="831.62" y="-537.75" font-family="Helvetica,sans-Serif" font-size="20.00">AI Decision Firewall — Stage A Durable Synthetic Receipt and Result Lookup</text>
<text xml:space="preserve" text-anchor="middle" x="831.62" y="-516.75" font-family="Helvetica,sans-Serif" font-size="20.00">Single host • offline synthetic only • production gate BLOCKED</text>
<g id="clust1" class="cluster">
<title>cluster_control</title>
<path fill="white" stroke="#7c3aed" d="M1030.5,-162.88C1030.5,-162.88 1313.5,-162.88 1313.5,-162.88 1319.5,-162.88 1325.5,-168.88 1325.5,-174.88 1325.5,-174.88 1325.5,-414.88 1325.5,-414.88 1325.5,-420.88 1319.5,-426.88 1313.5,-426.88 1313.5,-426.88 1030.5,-426.88 1030.5,-426.88 1024.5,-426.88 1018.5,-420.88 1018.5,-414.88 1018.5,-414.88 1018.5,-174.88 1018.5,-174.88 1018.5,-168.88 1024.5,-162.88 1030.5,-162.88"/>
<text xml:space="preserve" text-anchor="middle" x="1172" y="-403.88" font-family="Helvetica,sans-Serif" font-size="20.00">Control SQLite DB — schema v2</text>
</g>
<g id="clust2" class="cluster">
<title>cluster_adapter</title>
<path fill="white" stroke="#0f766e" d="M20,-171.88C20,-171.88 482.25,-171.88 482.25,-171.88 488.25,-171.88 494.25,-177.88 494.25,-183.88 494.25,-183.88 494.25,-311.88 494.25,-311.88 494.25,-317.88 488.25,-323.88 482.25,-323.88 482.25,-323.88 20,-323.88 20,-323.88 14,-323.88 8,-317.88 8,-311.88 8,-311.88 8,-183.88 8,-183.88 8,-177.88 14,-171.88 20,-171.88"/>
<text xml:space="preserve" text-anchor="middle" x="251.12" y="-300.88" font-family="Helvetica,sans-Serif" font-size="20.00">Synthetic adapter SQLite DB — schema v1</text>
</g>
<!-- request -->
<g id="node1" class="node">
<title>request</title>
<path fill="#e0f2fe" stroke="#334155" d="M439,-495.88C439,-495.88 286.5,-495.88 286.5,-495.88 280.5,-495.88 274.5,-489.88 274.5,-483.88 274.5,-483.88 274.5,-471.88 274.5,-471.88 274.5,-465.88 280.5,-459.88 286.5,-459.88 286.5,-459.88 439,-459.88 439,-459.88 445,-459.88 451,-465.88 451,-471.88 451,-471.88 451,-483.88 451,-483.88 451,-489.88 445,-495.88 439,-495.88"/>
<text xml:space="preserve" text-anchor="middle" x="362.75" y="-479.62" font-family="Helvetica,sans-Serif" font-size="10.00">Authenticated request</text>
<text xml:space="preserve" text-anchor="middle" x="362.75" y="-468.38" font-family="Helvetica,sans-Serif" font-size="10.00">Exact principal + request ID + digest</text>
</g>
<!-- firewall -->
<g id="node2" class="node">
<title>firewall</title>
<path fill="#e0f2fe" stroke="#334155" d="M802,-458.75C802,-458.75 667.5,-458.75 667.5,-458.75 661.5,-458.75 655.5,-452.75 655.5,-446.75 655.5,-446.75 655.5,-429 655.5,-429 655.5,-423 661.5,-417 667.5,-417 667.5,-417 802,-417 802,-417 808,-417 814,-423 814,-429 814,-429 814,-446.75 814,-446.75 814,-452.75 808,-458.75 802,-458.75"/>
<text xml:space="preserve" text-anchor="middle" x="734.75" y="-445.25" font-family="Helvetica,sans-Serif" font-size="10.00">Phase 3 firewall</text>
<text xml:space="preserve" text-anchor="middle" x="734.75" y="-434" font-family="Helvetica,sans-Serif" font-size="10.00">Policy + decision + authorization</text>
<text xml:space="preserve" text-anchor="middle" x="734.75" y="-422.75" font-family="Helvetica,sans-Serif" font-size="10.00">process_json remains fail&#45;closed</text>
</g>
<!-- request&#45;&gt;firewall -->
<g id="edge1" class="edge">
<title>request&#45;&gt;firewall</title>
<path fill="none" stroke="#475569" d="M451.43,-468.4C509.55,-462.11 585.59,-453.89 644.11,-447.57"/>
<polygon fill="#475569" stroke="#475569" points="644.12,-451.09 653.69,-446.53 643.37,-444.13 644.12,-451.09"/>
</g>
<!-- duplicate -->
<g id="node11" class="node">
<title>duplicate</title>
<path fill="#f1f5f9" stroke="#334155" d="M1249.25,-510.75C1249.25,-510.75 1093.75,-510.75 1093.75,-510.75 1087.75,-510.75 1081.75,-504.75 1081.75,-498.75 1081.75,-498.75 1081.75,-481 1081.75,-481 1081.75,-475 1087.75,-469 1093.75,-469 1093.75,-469 1249.25,-469 1249.25,-469 1255.25,-469 1261.25,-475 1261.25,-481 1261.25,-481 1261.25,-498.75 1261.25,-498.75 1261.25,-504.75 1255.25,-510.75 1249.25,-510.75"/>
<text xml:space="preserve" text-anchor="middle" x="1171.5" y="-497.25" font-family="Helvetica,sans-Serif" font-size="10.00">Exact duplicate through process_json</text>
<text xml:space="preserve" text-anchor="middle" x="1171.5" y="-486" font-family="Helvetica,sans-Serif" font-size="10.00">Fail&#45;closed duplicate decision</text>
<text xml:space="preserve" text-anchor="middle" x="1171.5" y="-474.75" font-family="Helvetica,sans-Serif" font-size="10.00">No authorization • no adapter call</text>
</g>
<!-- request&#45;&gt;duplicate -->
<g id="edge10" class="edge">
<title>request&#45;&gt;duplicate</title>
<path fill="none" stroke="#475569" stroke-dasharray="5,2" d="M451.24,-479.18C602.21,-481.42 910.77,-486.01 1070.19,-488.38"/>
<polygon fill="#475569" stroke="#475569" points="1069.84,-491.88 1079.89,-488.53 1069.95,-484.88 1069.84,-491.88"/>
<text xml:space="preserve" text-anchor="middle" x="734.75" y="-485.87" font-family="Helvetica,sans-Serif" font-size="9.00">after prior claim</text>
</g>
<!-- t1 -->
<g id="node3" class="node">
<title>t1</title>
<path fill="#ede9fe" stroke="#334155" d="M1232,-307.75C1232,-307.75 1111,-307.75 1111,-307.75 1105,-307.75 1099,-301.75 1099,-295.75 1099,-295.75 1099,-254 1099,-254 1099,-248 1105,-242 1111,-242 1111,-242 1232,-242 1232,-242 1238,-242 1244,-248 1244,-254 1244,-254 1244,-295.75 1244,-295.75 1244,-301.75 1238,-307.75 1232,-307.75"/>
<text xml:space="preserve" text-anchor="middle" x="1171.5" y="-294.25" font-family="Helvetica,sans-Serif" font-size="10.00">T1: authority reservation</text>
<text xml:space="preserve" text-anchor="middle" x="1171.5" y="-283" font-family="Helvetica,sans-Serif" font-size="10.00">Claim request</text>
<text xml:space="preserve" text-anchor="middle" x="1171.5" y="-271.75" font-family="Helvetica,sans-Serif" font-size="10.00">ISSUED → CONSUMED</text>
<text xml:space="preserve" text-anchor="middle" x="1171.5" y="-259" font-family="Helvetica,sans-Serif" font-size="10.00">Reserve exact&#45;bound attempt</text>
<text xml:space="preserve" text-anchor="middle" x="1171.5" y="-247.75" font-family="Helvetica,sans-Serif" font-size="10.00">Outbox transition</text>
</g>
<!-- firewall&#45;&gt;t1 -->
<g id="edge2" class="edge">
<title>firewall&#45;&gt;t1</title>
<path fill="none" stroke="#475569" d="M814.38,-439.94C870.57,-437.33 944.74,-425.02 994.5,-382.88 1016.73,-364.05 997.14,-341.69 1018.5,-321.88 1037.55,-304.2 1063.13,-293.17 1087.86,-286.29"/>
<polygon fill="#475569" stroke="#475569" points="1088.48,-289.74 1097.29,-283.87 1086.74,-282.96 1088.48,-289.74"/>
<text xml:space="preserve" text-anchor="middle" x="922.88" y="-437.24" font-family="Helvetica,sans-Serif" font-size="9.00">one control transaction</text>
</g>
<!-- t2 -->
<g id="node6" class="node">
<title>t2</title>
<path fill="#ccfbf1" stroke="#334155" d="M178.25,-233.38C178.25,-233.38 28,-233.38 28,-233.38 22,-233.38 16,-227.38 16,-221.38 16,-221.38 16,-192.38 16,-192.38 16,-186.38 22,-180.38 28,-180.38 28,-180.38 178.25,-180.38 178.25,-180.38 184.25,-180.38 190.25,-186.38 190.25,-192.38 190.25,-192.38 190.25,-221.38 190.25,-221.38 190.25,-227.38 184.25,-233.38 178.25,-233.38"/>
<text xml:space="preserve" text-anchor="middle" x="103.12" y="-219.88" font-family="Helvetica,sans-Serif" font-size="10.00">T2: execute_once(idempotency key)</text>
<text xml:space="preserve" text-anchor="middle" x="103.12" y="-208.62" font-family="Helvetica,sans-Serif" font-size="10.00">Validate exact binding + prestate</text>
<text xml:space="preserve" text-anchor="middle" x="103.12" y="-197.38" font-family="Helvetica,sans-Serif" font-size="10.00">Atomic synthetic state mutation</text>
<text xml:space="preserve" text-anchor="middle" x="103.12" y="-186.12" font-family="Helvetica,sans-Serif" font-size="10.00">+ immutable adapter receipt</text>
</g>
<!-- t1&#45;&gt;t2 -->
<g id="edge5" class="edge">
<title>t1&#45;&gt;t2</title>
<path fill="none" stroke="#475569" d="M1098.83,-267.57C1070.24,-261.14 1039.25,-249.14 1018.5,-226.88 987.34,-193.44 1030.39,-155.17 994.5,-126.88 744.65,70.11 324,-99.69 166.31,-175.16"/>
<polygon fill="#475569" stroke="#475569" points="165.16,-171.83 157.67,-179.33 168.2,-178.14 165.16,-171.83"/>
<text xml:space="preserve" text-anchor="middle" x="564.25" y="-56.82" font-family="Helvetica,sans-Serif" font-size="9.00">no control transaction held</text>
</g>
<!-- reconcile -->
<g id="node12" class="node">
<title>reconcile</title>
<path fill="#fff7ed" stroke="#c2410c" d="M723.35,-227.62C723.35,-227.62 653.65,-204.63 653.65,-204.63 647.95,-202.75 647.95,-199 653.65,-197.12 653.65,-197.12 723.35,-174.13 723.35,-174.13 729.05,-172.25 740.45,-172.25 746.15,-174.13 746.15,-174.13 815.85,-197.12 815.85,-197.12 821.55,-199 821.55,-202.75 815.85,-204.63 815.85,-204.63 746.15,-227.62 746.15,-227.62 740.45,-229.5 729.05,-229.5 723.35,-227.62"/>
<text xml:space="preserve" text-anchor="middle" x="734.75" y="-202.62" font-family="Helvetica,sans-Serif" font-size="10.00">Explicit quiesced</text>
<text xml:space="preserve" text-anchor="middle" x="734.75" y="-191.38" font-family="Helvetica,sans-Serif" font-size="10.00">reconcile_request</text>
</g>
<!-- t1&#45;&gt;reconcile -->
<g id="edge12" class="edge">
<title>t1&#45;&gt;reconcile</title>
<path fill="none" stroke="#475569" stroke-dasharray="5,2" d="M1098.52,-255.93C1066.79,-248.06 1028.96,-239.34 994.5,-233.12 936.2,-222.61 869.9,-214.42 819.01,-208.92"/>
<polygon fill="#475569" stroke="#475569" points="819.55,-205.46 809.24,-207.88 818.81,-212.42 819.55,-205.46"/>
<text xml:space="preserve" text-anchor="middle" x="922.88" y="-234.32" font-family="Helvetica,sans-Serif" font-size="9.00">restart finds unresolved attempt</text>
</g>
<!-- t3 -->
<g id="node4" class="node">
<title>t3</title>
<path fill="#ede9fe" stroke="#334155" d="M1237.62,-389.38C1237.62,-389.38 1105.38,-389.38 1105.38,-389.38 1099.38,-389.38 1093.38,-383.38 1093.38,-377.38 1093.38,-377.38 1093.38,-348.38 1093.38,-348.38 1093.38,-342.38 1099.38,-336.38 1105.38,-336.38 1105.38,-336.38 1237.62,-336.38 1237.62,-336.38 1243.62,-336.38 1249.62,-342.38 1249.62,-348.38 1249.62,-348.38 1249.62,-377.38 1249.62,-377.38 1249.62,-383.38 1243.62,-389.38 1237.62,-389.38"/>
<text xml:space="preserve" text-anchor="middle" x="1171.5" y="-375.88" font-family="Helvetica,sans-Serif" font-size="10.00">T3: verified terminal record</text>
<text xml:space="preserve" text-anchor="middle" x="1171.5" y="-364.62" font-family="Helvetica,sans-Serif" font-size="10.00">Attempt + request state</text>
<text xml:space="preserve" text-anchor="middle" x="1171.5" y="-353.38" font-family="Helvetica,sans-Serif" font-size="10.00">Sanitized RequestLookupResult</text>
<text xml:space="preserve" text-anchor="middle" x="1171.5" y="-342.12" font-family="Helvetica,sans-Serif" font-size="10.00">Outbox transition</text>
</g>
<!-- lookup -->
<g id="node10" class="node">
<title>lookup</title>
<path fill="#dbeafe" stroke="#334155" d="M1651.25,-383.75C1651.25,-383.75 1498.75,-383.75 1498.75,-383.75 1492.75,-383.75 1486.75,-377.75 1486.75,-371.75 1486.75,-371.75 1486.75,-354 1486.75,-354 1486.75,-348 1492.75,-342 1498.75,-342 1498.75,-342 1651.25,-342 1651.25,-342 1657.25,-342 1663.25,-348 1663.25,-354 1663.25,-354 1663.25,-371.75 1663.25,-371.75 1663.25,-377.75 1657.25,-383.75 1651.25,-383.75"/>
<text xml:space="preserve" text-anchor="middle" x="1575" y="-370.25" font-family="Helvetica,sans-Serif" font-size="10.00">Authenticated lookup_request_result</text>
<text xml:space="preserve" text-anchor="middle" x="1575" y="-359" font-family="Helvetica,sans-Serif" font-size="10.00">Exact principal + request ID + digest</text>
<text xml:space="preserve" text-anchor="middle" x="1575" y="-347.75" font-family="Helvetica,sans-Serif" font-size="10.00">replayed=true • no new work</text>
</g>
<!-- t3&#45;&gt;lookup -->
<g id="edge9" class="edge">
<title>t3&#45;&gt;lookup</title>
<path fill="none" stroke="#475569" d="M1249.91,-362.88C1314.02,-362.88 1405.53,-362.88 1474.97,-362.88"/>
<polygon fill="#475569" stroke="#475569" points="1474.84,-366.38 1484.84,-362.88 1474.84,-359.38 1474.84,-366.38"/>
</g>
<!-- unknown -->
<g id="node5" class="node">
<title>unknown</title>
<path fill="#fee2e2" stroke="#991b1b" d="M1224.88,-212.75C1224.88,-212.75 1118.12,-212.75 1118.12,-212.75 1112.12,-212.75 1106.12,-206.75 1106.12,-200.75 1106.12,-200.75 1106.12,-183 1106.12,-183 1106.12,-177 1112.12,-171 1118.12,-171 1118.12,-171 1224.88,-171 1224.88,-171 1230.88,-171 1236.88,-177 1236.88,-183 1236.88,-183 1236.88,-200.75 1236.88,-200.75 1236.88,-206.75 1230.88,-212.75 1224.88,-212.75"/>
<text xml:space="preserve" text-anchor="middle" x="1171.5" y="-199.25" font-family="Helvetica,sans-Serif" font-size="10.00" fill="#7f1d1d">UNKNOWN_EFFECT</text>
<text xml:space="preserve" text-anchor="middle" x="1171.5" y="-188" font-family="Helvetica,sans-Serif" font-size="10.00" fill="#7f1d1d">Terminal quarantine</text>
<text xml:space="preserve" text-anchor="middle" x="1171.5" y="-176.75" font-family="Helvetica,sans-Serif" font-size="10.00" fill="#7f1d1d">No token reopen • no retry</text>
</g>
<!-- unknown&#45;&gt;lookup -->
<g id="edge17" class="edge">
<title>unknown&#45;&gt;lookup</title>
<path fill="none" stroke="#475569" d="M1237.29,-203.13C1264.97,-208.95 1297.33,-217.13 1325.5,-227.88 1401.89,-257.01 1484.05,-305.37 1532.15,-335.61"/>
<polygon fill="#475569" stroke="#475569" points="1529.99,-338.38 1540.31,-340.78 1533.74,-332.47 1529.99,-338.38"/>
<text xml:space="preserve" text-anchor="middle" x="1406.12" y="-292.37" font-family="Helvetica,sans-Serif" font-size="9.00">recovery&#45;required envelope</text>
</g>
<!-- no_retry -->
<g id="node15" class="node">
<title>no_retry</title>
<polygon fill="#f8fafc" stroke="#64748b" points="1646.38,-224.38 1497.62,-224.38 1497.62,-159.38 1652.38,-159.38 1652.38,-218.38 1646.38,-224.38"/>
<polyline fill="none" stroke="#64748b" points="1646.38,-224.38 1646.38,-218.38"/>
<polyline fill="none" stroke="#64748b" points="1652.38,-218.38 1646.38,-218.38"/>
<text xml:space="preserve" text-anchor="middle" x="1575" y="-210.88" font-family="Helvetica,sans-Serif" font-size="10.00">PROHIBITED</text>
<text xml:space="preserve" text-anchor="middle" x="1575" y="-199.62" font-family="Helvetica,sans-Serif" font-size="10.00">Automatic command retry</text>
<text xml:space="preserve" text-anchor="middle" x="1575" y="-188.38" font-family="Helvetica,sans-Serif" font-size="10.00">Replacement authorization</text>
<text xml:space="preserve" text-anchor="middle" x="1575" y="-177.12" font-family="Helvetica,sans-Serif" font-size="10.00">Receipt ⇒ VERIFIED inference</text>
<text xml:space="preserve" text-anchor="middle" x="1575" y="-165.12" font-family="Helvetica,sans-Serif" font-size="10.00">Stage B/C or live connector</text>
</g>
<!-- unknown&#45;&gt;no_retry -->
<g id="edge19" class="edge">
<title>unknown&#45;&gt;no_retry</title>
<path fill="none" stroke="#991b1b" stroke-dasharray="5,2" d="M1237.01,-191.88C1307.94,-191.88 1421.85,-191.88 1497.3,-191.88"/>
</g>
<!-- state -->
<g id="node7" class="node">
<title>state</title>
<path fill="#d1fae5" stroke="#334155" d="M423.25,-286.88C423.25,-286.88 302.25,-286.88 302.25,-286.88 296.25,-286.88 290.25,-280.88 290.25,-274.88 290.25,-274.88 290.25,-262.88 290.25,-262.88 290.25,-256.88 296.25,-250.88 302.25,-250.88 302.25,-250.88 423.25,-250.88 423.25,-250.88 429.25,-250.88 435.25,-256.88 435.25,-262.88 435.25,-262.88 435.25,-274.88 435.25,-274.88 435.25,-280.88 429.25,-286.88 423.25,-286.88"/>
<text xml:space="preserve" text-anchor="middle" x="362.75" y="-265" font-family="Helvetica,sans-Serif" font-size="10.00">Durable synthetic target state</text>
</g>
<!-- t2&#45;&gt;state -->
<g id="edge3" class="edge">
<title>t2&#45;&gt;state</title>
<path fill="none" stroke="#475569" d="M190.63,-227.69C219.15,-234.56 250.78,-242.17 279.01,-248.96"/>
<polygon fill="#475569" stroke="#475569" points="278.05,-252.33 288.59,-251.27 279.68,-245.52 278.05,-252.33"/>
</g>
<!-- receipt -->
<g id="node8" class="node">
<title>receipt</title>
<path fill="#d1fae5" stroke="#334155" d="M474.25,-221.75C474.25,-221.75 251.25,-221.75 251.25,-221.75 245.25,-221.75 239.25,-215.75 239.25,-209.75 239.25,-209.75 239.25,-192 239.25,-192 239.25,-186 245.25,-180 251.25,-180 251.25,-180 474.25,-180 474.25,-180 480.25,-180 486.25,-186 486.25,-192 486.25,-192 486.25,-209.75 486.25,-209.75 486.25,-215.75 480.25,-221.75 474.25,-221.75"/>
<text xml:space="preserve" text-anchor="middle" x="362.75" y="-208.25" font-family="Helvetica,sans-Serif" font-size="10.00">SyntheticAdapterReceipt</text>
<text xml:space="preserve" text-anchor="middle" x="362.75" y="-197" font-family="Helvetica,sans-Serif" font-size="10.00">NO_EFFECT • APPLIED • PARTIAL • AMBIGUOUS</text>
<text xml:space="preserve" text-anchor="middle" x="362.75" y="-185.75" font-family="Helvetica,sans-Serif" font-size="10.00">Adapter&#45;reported only</text>
</g>
<!-- t2&#45;&gt;receipt -->
<g id="edge4" class="edge">
<title>t2&#45;&gt;receipt</title>
<path fill="none" stroke="#475569" d="M190.63,-204.86C202.49,-204.58 214.89,-204.3 227.36,-204"/>
<polygon fill="#475569" stroke="#475569" points="227.39,-207.51 237.31,-203.77 227.23,-200.51 227.39,-207.51"/>
</g>
<!-- no_atomicity -->
<g id="node14" class="node">
<title>no_atomicity</title>
<polygon fill="#fff7ed" stroke="#c2410c" points="454.38,-41.75 265.12,-41.75 265.12,0 460.38,0 460.38,-35.75 454.38,-41.75"/>
<polyline fill="none" stroke="#c2410c" points="454.38,-41.75 454.38,-35.75"/>
<polyline fill="none" stroke="#c2410c" points="460.38,-35.75 454.38,-35.75"/>
<text xml:space="preserve" text-anchor="middle" x="362.75" y="-28.25" font-family="Helvetica,sans-Serif" font-size="10.00">NO CROSS&#45;STORE ATOMICITY</text>
<text xml:space="preserve" text-anchor="middle" x="362.75" y="-17" font-family="Helvetica,sans-Serif" font-size="10.00">T1, T2, observation, T3 and JSONL audit</text>
<text xml:space="preserve" text-anchor="middle" x="362.75" y="-5.75" font-family="Helvetica,sans-Serif" font-size="10.00">are separate failure boundaries</text>
</g>
<!-- t2&#45;&gt;no_atomicity -->
<g id="edge18" class="edge">
<title>t2&#45;&gt;no_atomicity</title>
<path fill="none" stroke="#475569" stroke-dasharray="1,5" d="M117.85,-180.04C135.73,-147.74 170,-94.09 214.25,-63.88 229.45,-53.5 247.17,-45.59 264.95,-39.57"/>
</g>
<!-- observer -->
<g id="node9" class="node">
<title>observer</title>
<path fill="#fef3c7" stroke="#334155" d="M805.75,-387.75C805.75,-387.75 663.75,-387.75 663.75,-387.75 657.75,-387.75 651.75,-381.75 651.75,-375.75 651.75,-375.75 651.75,-358 651.75,-358 651.75,-352 657.75,-346 663.75,-346 663.75,-346 805.75,-346 805.75,-346 811.75,-346 817.75,-352 817.75,-358 817.75,-358 817.75,-375.75 817.75,-375.75 817.75,-381.75 811.75,-387.75 805.75,-387.75"/>
<text xml:space="preserve" text-anchor="middle" x="734.75" y="-374.25" font-family="Helvetica,sans-Serif" font-size="10.00">Read&#45;only durable observer</text>
<text xml:space="preserve" text-anchor="middle" x="734.75" y="-363" font-family="Helvetica,sans-Serif" font-size="10.00">Separate API; same&#45;store custody</text>
<text xml:space="preserve" text-anchor="middle" x="734.75" y="-351.75" font-family="Helvetica,sans-Serif" font-size="10.00">Not independent target evidence</text>
</g>
<!-- state&#45;&gt;observer -->
<g id="edge6" class="edge">
<title>state&#45;&gt;observer</title>
<path fill="none" stroke="#475569" d="M402.1,-287.31C431.18,-300.61 472.46,-318.07 510.25,-328.88 552.19,-340.87 599.71,-349.6 640.11,-355.65"/>
<polygon fill="#475569" stroke="#475569" points="639.41,-359.08 649.81,-357.06 640.42,-352.15 639.41,-359.08"/>
<text xml:space="preserve" text-anchor="middle" x="564.25" y="-352.58" font-family="Helvetica,sans-Serif" font-size="9.00">readback</text>
</g>
<!-- receipt&#45;&gt;t3 -->
<g id="edge7" class="edge">
<title>receipt&#45;&gt;t3</title>
<path fill="none" stroke="#475569" d="M469.78,-222.21C568.53,-242.07 719.85,-272.5 851.25,-298.88 929.15,-314.51 1017.75,-332.27 1081.82,-345.11"/>
<polygon fill="#475569" stroke="#475569" points="1081.11,-348.54 1091.6,-347.07 1082.48,-341.67 1081.11,-348.54"/>
<text xml:space="preserve" text-anchor="middle" x="734.75" y="-294.22" font-family="Helvetica,sans-Serif" font-size="9.00">receipt digest + disposition</text>
</g>
<!-- receipt&#45;&gt;reconcile -->
<g id="edge13" class="edge">
<title>receipt&#45;&gt;reconcile</title>
<path fill="none" stroke="#475569" stroke-dasharray="5,2" d="M486.7,-200.88C532.93,-200.88 585.02,-200.88 629.4,-200.88"/>
<polygon fill="#475569" stroke="#475569" points="629.29,-204.38 639.29,-200.88 629.29,-197.38 629.29,-204.38"/>
<text xml:space="preserve" text-anchor="middle" x="564.25" y="-202.07" font-family="Helvetica,sans-Serif" font-size="9.00">read only; never execute</text>
</g>
<!-- observer&#45;&gt;t3 -->
<g id="edge8" class="edge">
<title>observer&#45;&gt;t3</title>
<path fill="none" stroke="#475569" d="M818.03,-366.12C893.35,-365.42 1004.51,-364.4 1081.79,-363.69"/>
<polygon fill="#475569" stroke="#475569" points="1081.45,-367.19 1091.42,-363.6 1081.39,-360.19 1081.45,-367.19"/>
<text xml:space="preserve" text-anchor="middle" x="922.88" y="-367" font-family="Helvetica,sans-Serif" font-size="9.00">verification summary</text>
</g>
<!-- duplicate&#45;&gt;lookup -->
<g id="edge11" class="edge">
<title>duplicate&#45;&gt;lookup</title>
<path fill="none" stroke="#475569" stroke-dasharray="5,2" d="M1239.7,-468.62C1310.34,-446.27 1421.36,-411.16 1495.86,-387.59"/>
<polygon fill="#475569" stroke="#475569" points="1496.66,-391.01 1505.14,-384.66 1494.55,-384.34 1496.66,-391.01"/>
<text xml:space="preserve" text-anchor="middle" x="1406.12" y="-431.38" font-family="Helvetica,sans-Serif" font-size="9.00">separate read&#45;only lookup</text>
</g>
<!-- reconcile&#45;&gt;t3 -->
<g id="edge14" class="edge">
<title>reconcile&#45;&gt;t3</title>
<path fill="none" stroke="#475569" d="M776.97,-217.86C798.79,-226.43 826.2,-236.54 851.25,-243.88 913.77,-262.17 942.88,-235.15 994.5,-274.88 1013.09,-289.18 1000.28,-307.11 1018.5,-321.88 1036.66,-336.59 1059.64,-346.05 1082.21,-352.12"/>
<polygon fill="#475569" stroke="#475569" points="1081.21,-355.48 1091.76,-354.48 1082.88,-348.68 1081.21,-355.48"/>
<text xml:space="preserve" text-anchor="middle" x="922.88" y="-287.32" font-family="Helvetica,sans-Serif" font-size="9.00">exact NO_EFFECT only</text>
<text xml:space="preserve" text-anchor="middle" x="922.88" y="-277.57" font-family="Helvetica,sans-Serif" font-size="9.00">→ FAILED_NO_EFFECT</text>
</g>
<!-- reconcile&#45;&gt;unknown -->
<g id="edge15" class="edge">
<title>reconcile&#45;&gt;unknown</title>
<path fill="none" stroke="#475569" d="M788.89,-187.74C808.37,-183.54 830.69,-179.45 851.25,-177.38 934.18,-169.02 1029.72,-175.47 1094.51,-182.22"/>
<polygon fill="#475569" stroke="#475569" points="1094.02,-185.68 1104.33,-183.27 1094.77,-178.72 1094.02,-185.68"/>
<text xml:space="preserve" text-anchor="middle" x="922.88" y="-188.32" font-family="Helvetica,sans-Serif" font-size="9.00">APPLIED / PARTIAL / AMBIGUOUS</text>
<text xml:space="preserve" text-anchor="middle" x="922.88" y="-178.57" font-family="Helvetica,sans-Serif" font-size="9.00">or no receipt</text>
</g>
<!-- halt -->
<g id="node13" class="node">
<title>halt</title>
<path fill="#fee2e2" stroke="#991b1b" d="M1225.62,-141.75C1225.62,-141.75 1117.38,-141.75 1117.38,-141.75 1111.38,-141.75 1105.38,-135.75 1105.38,-129.75 1105.38,-129.75 1105.38,-112 1105.38,-112 1105.38,-106 1111.38,-100 1117.38,-100 1117.38,-100 1225.62,-100 1225.62,-100 1231.62,-100 1237.62,-106 1237.62,-112 1237.62,-112 1237.62,-129.75 1237.62,-129.75 1237.62,-135.75 1231.62,-141.75 1225.62,-141.75"/>
<text xml:space="preserve" text-anchor="middle" x="1171.5" y="-128.25" font-family="Helvetica,sans-Serif" font-size="10.00" fill="#7f1d1d">HALT RECONCILIATION</text>
<text xml:space="preserve" text-anchor="middle" x="1171.5" y="-117" font-family="Helvetica,sans-Serif" font-size="10.00" fill="#7f1d1d">No state transition</text>
<text xml:space="preserve" text-anchor="middle" x="1171.5" y="-105.75" font-family="Helvetica,sans-Serif" font-size="10.00" fill="#7f1d1d">Preserve both DBs + audit</text>
</g>
<!-- reconcile&#45;&gt;halt -->
<g id="edge16" class="edge">
<title>reconcile&#45;&gt;halt</title>
<path fill="none" stroke="#475569" d="M775.07,-183.19C797.05,-174.01 825.2,-163.43 851.25,-157.12 932.7,-137.4 1028.49,-128.34 1093.75,-124.23"/>
<polygon fill="#475569" stroke="#475569" points="1093.88,-127.72 1103.65,-123.63 1093.46,-120.74 1093.88,-127.72"/>
<text xml:space="preserve" text-anchor="middle" x="922.88" y="-158.32" font-family="Helvetica,sans-Serif" font-size="9.00">corrupt / mismatch / unavailable</text>
</g>
</g>
</svg>
